<svg width="130" height="86" viewBox="0 0 130 86" fill="none" xmlns="http://www.w3.org/2000/svg">
<path d="M14.4701 80.1642C14.8014 80.4705 14.9951 80.5268 15.1889 80.5831C17.1019 80.5082 18.7897 81.2085 20.6214 80.6898C23.7846 79.9275 27.0042 78.9713 30.1112 78.4027C32.1367 77.9403 34.2434 77.9218 36.4313 78.3471C38.4255 78.7161 40.4759 78.8913 42.6076 79.5104C45.3769 80.1045 47.9211 81.4738 50.1589 83.1744C52.0655 84.5687 52.778 86.4566 52.1589 88.5883C51.6523 90.3324 50.8145 91.7701 49.0078 92.9265C47.2573 93.889 45.4006 93.7701 43.6252 94.095C40.9621 94.5823 38.3865 94.0445 35.7547 93.7004C33.5668 93.2751 31.3226 93.0436 29.3598 91.8431C26.8156 90.4738 24.2714 89.1045 22.1461 87.0164C20.4896 85.4846 18.5831 84.0904 16.4514 83.4713C15.8701 83.3025 15.2887 83.1336 14.6511 83.1586C12.7944 83.0396 10.6877 83.0582 8.77476 83.133C6.66805 83.1516 5.30515 84.2267 3.47344 84.7454C2.77951 84.9641 1.97303 85.5704 1.27911 85.7892C-0.915227 86.8329 -3.30335 87.8204 -5.55397 89.058C-6.9981 89.6892 -8.30472 90.5706 -9.55506 91.2581C-11.3055 92.2206 -13.1935 92.9331 -15.0003 94.0895C-17.5572 95.6583 -19.9204 97.2834 -22.0086 99.4087C-23.234 100.734 -24.9845 101.696 -26.3474 102.772C-27.5165 103.903 -28.9606 104.534 -30.5422 104.915C-30.9861 104.997 -31.4299 105.078 -31.8175 104.965C-32.8677 104.24 -34.0055 104.54 -35.2245 104.396C-35.4183 104.34 -35.9996 104.171 -35.9996 104.171C-36.1371 103.921 -35.9683 103.34 -35.7182 103.202C-34.1053 101.989 -32.4923 100.777 -30.6855 99.6205C-28.1848 98.2454 -25.6842 96.8703 -23.1835 95.4952C-21.9331 94.8077 -20.7391 94.314 -19.6262 93.3764C-16.7066 91.2824 -13.787 89.1885 -11.005 86.8445C-9.14192 85.4944 -7.47267 84.088 -5.60963 82.7378C-3.44024 81.0564 -2.76487 78.731 -3.05845 76.1241C-3.32707 74.1549 -3.65198 72.3795 -3.97688 70.604C-4.16428 69.0787 -3.71403 67.5284 -3.26378 65.9781C-2.11323 62.74 0.0312177 60.4209 2.03815 57.8518C2.70714 56.9954 3.76369 56.2516 4.90147 55.9516C7.28959 54.9641 9.00234 56.3021 9.98983 58.6902C11.1961 61.7723 10.6019 64.5416 9.75771 67.4484C8.96978 70.1614 6.9379 72.0929 5.23731 74.3307C4.2057 75.7122 3.03659 76.8436 1.67369 77.9187C1.36734 78.25 1.06098 78.5813 0.94842 78.9689C0.77958 79.5502 0.416955 80.0753 0.248112 80.6567C0.191833 80.8505 0.216772 81.4881 0.216772 81.4881C0.604352 81.6007 0.991932 81.7132 1.43578 81.632C2.43605 81.082 3.24254 80.4757 4.4366 79.9819C7.32486 78.7194 10.2131 77.4569 13.2389 76.4445C14.8768 75.8695 16.571 75.1007 18.0151 74.4695C18.2652 74.332 18.5153 74.1945 18.7653 74.0569C20.2971 72.4005 21.8851 70.5502 22.3667 68.1685C22.5669 66.7557 22.0731 65.5616 21.5794 64.3676C20.5356 62.1732 19.298 59.9226 18.5043 57.5908C17.8481 55.509 17.4983 53.0959 17.2859 50.9329C17.1548 49.2138 17.2738 47.3571 18.1679 45.7256C19.1183 43.9003 19.8748 42.0187 21.3503 40.556C22.5757 39.2308 24.52 38.3246 26.2704 37.362C27.0206 36.9495 28.0459 37.0371 28.8773 37.0685C31.3153 37.3563 32.8343 38.6379 34.1281 40.6948C36.0283 43.5581 35.5716 46.5774 35.5026 49.7094C35.3523 52.3975 34.4269 54.8604 33.3076 57.2671C32.3572 59.0924 31.6007 60.974 30.6503 62.7993C30.0625 64.0996 29.0872 65.2872 27.7806 66.1686C26.5302 66.8561 25.9425 68.1563 25.2172 69.2065C24.9109 69.5378 25.1296 70.2317 24.9045 71.0069C25.5984 70.7881 26.0985 70.5131 26.5424 70.4319C28.5429 69.3318 30.7373 68.288 32.6003 66.9379C35.2698 64.9815 37.9394 63.0251 39.9463 60.4559C41.2843 58.7432 42.2346 56.9179 43.4351 54.955C44.1603 53.9049 43.8604 52.7671 43.8105 51.4918C43.4044 49.2725 42.8607 46.8032 42.7047 44.4464C42.6298 42.5335 42.8051 40.483 43.5617 38.6014C44.2057 37.1074 44.4621 35.5008 45.1062 34.0068C45.6376 32.9004 46.2254 31.6001 46.7569 30.4937C47.7635 28.4746 49.1015 26.7618 50.6332 25.1054C51.5523 24.1115 52.3901 22.6737 53.3092 21.6798C55.1472 19.6921 57.5917 18.5108 60.2235 18.8549C61.2487 18.9425 62.4114 19.2802 63.2678 19.9492C65.0368 21.0933 65.3617 22.8687 65.4928 24.5879C65.7052 26.7509 65.5299 28.8013 65.3547 30.8518C65.3797 31.4894 65.2108 32.0708 64.8482 32.5959C64.0353 34.6712 63.4162 36.8029 62.4658 38.6282C61.5717 40.2597 60.3463 41.5849 59.5085 43.0227C57.1639 46.7545 53.7691 49.7611 50.2368 52.5176C49.9305 52.8489 49.2366 53.0677 48.7927 53.1489C48.0988 53.3676 47.4611 53.3926 47.236 54.1677C46.7295 55.9118 46.0292 57.5996 45.5789 59.1499C45.5226 59.3437 45.5226 59.3437 45.6039 59.7876C46.6041 59.2375 47.5481 58.8813 48.3546 58.275C52.1619 56.0186 55.913 53.956 59.7765 51.5058C61.8334 50.212 63.7527 48.6681 65.5345 46.8741C66.7599 45.5489 68.3729 44.3363 69.7358 43.2612C70.2922 42.7924 70.5985 42.4611 70.9612 41.936C71.2675 41.6047 71.1863 41.1608 71.2988 40.7733C71.4677 40.1919 71.6365 39.6105 71.9429 39.2793C72.1117 38.6979 72.168 38.5041 71.5866 38.3353C71.0053 38.1664 70.4239 37.9976 70.4553 37.1661C70.6804 36.391 71.2368 35.9222 71.8744 35.8972C72.3183 35.816 72.8997 35.9849 73.3435 35.9036C74.3687 35.9913 74.9814 35.3287 74.6252 34.3847C74.2689 33.4407 74.1065 32.553 73.5002 31.7465C72.2063 29.6897 71.8565 27.2766 71.5629 24.6697C71.0007 20.0937 71.8513 15.7178 73.1458 11.2607C73.99 8.35385 75.6094 5.67216 78.0851 3.65944C78.8916 3.05313 80.0856 2.55939 81.0859 2.00936C82.7801 1.2406 84.3304 1.69084 85.8244 2.33488C87.1809 2.72884 88.1185 3.84168 88.8061 5.09202C90.3999 8.28663 90.2745 11.6124 89.7053 15.0193C89.1362 18.4263 88.1794 21.7206 86.6412 24.8462C85.6909 26.6715 84.4092 28.1905 83.1275 29.7094C82.0959 31.0909 80.8705 32.4161 79.8389 33.7975C79.4763 34.3226 79.3074 34.904 79.5824 35.4041C79.8012 36.098 79.6323 36.6794 78.9384 36.8981C77.8006 37.1981 77.1316 38.0545 76.6565 38.9671C76.5439 39.3547 76.2375 39.686 76.0687 40.2674C76.0124 40.4611 75.9561 40.6549 76.0936 40.905C76.2874 40.9613 76.4812 41.0176 76.7313 40.8801C77.1751 40.7988 77.4815 40.4675 77.7878 40.1362C80.2636 38.1235 82.7956 35.917 85.2713 33.9043C86.9406 32.4979 88.4161 31.0352 89.8915 29.5725C90.1416 29.435 90.0041 29.185 90.0604 28.9912C90.4543 27.6347 90.8483 26.2782 91.9611 25.3405C92.5988 25.3156 92.7113 24.928 92.8239 24.5405C93.1366 22.7401 93.3119 20.6896 93.4308 18.833C93.7186 16.395 94.394 14.0695 95.3194 11.6066C97.0264 7.89966 99.921 5.16808 103.284 2.99291C104.341 2.2491 105.591 1.56156 106.842 0.87403C108.536 0.105269 110.999 1.03071 111.461 3.0562C111.761 4.19398 111.811 5.46927 111.861 6.74455C111.823 9.04506 111.148 11.3705 110.141 13.3896C109.022 15.7963 107.378 17.8403 105.733 19.8844C103.839 22.0659 101.645 23.1097 99.144 24.4848C98.6439 24.7598 97.8937 25.1723 97.6686 25.9475C97.6123 26.1413 97.1122 26.4163 96.8621 26.5538C96.2494 27.2164 95.6367 27.879 94.9677 28.7353C95.4679 28.4603 95.968 28.1853 96.4681 27.9103C99.3314 26.0101 102.195 24.11 105.114 22.016C105.865 21.6035 106.146 20.6346 106.952 20.0283C108.178 18.7031 109.541 17.628 110.71 16.4966C112.267 15.4778 113.242 14.2901 114.136 12.6586C115.336 10.6958 116.593 8.53914 118.844 7.30158C120.15 6.42026 121.401 5.73273 122.651 5.04519C123.207 4.57639 123.708 4.30138 124.402 4.08264C125.458 3.33883 126.652 2.84508 127.903 2.15755C128.653 1.74502 128.871 2.43895 129.146 2.93908C129.584 4.32693 129.44 5.54594 129.046 6.90245C128.177 9.17162 126.976 11.1344 125.113 12.4846C124.307 13.0909 123.638 13.9473 123.025 14.6098C121.219 15.7662 119.581 16.3412 117.886 17.1099C116.499 17.5474 115.192 18.4287 113.885 19.31C113.135 19.7225 112.329 20.3289 111.522 20.9352C111.272 21.0727 110.966 21.404 110.853 21.7915C111.047 21.8478 111.297 21.7103 111.491 21.7666C114.517 20.7542 117.43 20.1293 120.374 18.673C121.124 18.2605 122.15 18.3481 123.175 18.4357C125.225 18.6109 127.107 19.3675 128.932 20.3179C129.845 20.7931 129.87 21.4307 129.063 22.0371C127.507 23.0559 125.894 24.2685 124.337 25.2873C122.587 26.2499 120.811 26.5748 118.898 26.6496C117.623 26.6995 116.348 26.7494 115.129 26.6055C112.691 26.3177 110.278 26.6676 108.002 27.2675C107.752 27.405 107.558 27.3487 107.308 27.4862L107.252 27.68L107.446 27.7363C108.996 28.1865 110.602 28.443 112.153 28.8932C113.509 29.2872 113.591 29.7311 112.671 30.7249C112.615 30.9187 112.421 30.8624 112.309 31.25C113.14 31.2814 113.972 31.3127 114.609 31.2877C116.966 31.1317 119.235 32.0008 121.254 33.0075C121.917 33.6202 122.83 34.0954 123.549 34.5143C125.318 35.6585 126.03 37.5465 126.105 39.4594C126.098 40.9285 125.123 42.1161 123.954 43.2475C122.535 44.5164 120.841 45.2852 119.009 45.8039C117.427 46.1851 115.571 46.0661 114.02 45.6159C112.082 45.0531 109.951 44.434 108.069 43.6774C106.963 43.1459 105.913 42.4206 104.806 41.8892C101.681 40.351 98.305 38.9504 95.1232 37.6061C94.5418 37.4372 93.9042 37.4622 93.5166 37.3496C89.3594 37.1929 85.721 38.868 82.1637 40.9868C80.6633 41.8119 79.3567 42.6932 77.9938 43.7683C75.6869 45.1997 73.3237 46.8248 70.823 48.1999C69.3226 49.0249 67.8222 49.85 66.4593 50.9251C67.0407 51.0939 67.4845 51.0127 68.0659 51.1815C71.0853 51.6382 74.2172 51.7072 77.3242 51.1386C77.9619 51.1137 78.6558 50.895 79.3497 50.6762C81.7378 49.6887 84.2884 49.5889 86.8953 49.2954C89.3083 48.9455 91.8026 49.0395 94.2406 49.3273C94.8783 49.3024 95.6534 49.5275 96.4286 49.7526C97.7851 50.1466 99.1979 50.3468 100.554 50.7407C103.017 51.6662 105.343 52.3415 107.387 53.9858C109.293 55.3801 111.087 57.1619 112.381 59.2187C113.125 60.2753 113.562 61.6631 113.362 63.0759C113.031 62.7696 113.169 63.0196 113.112 63.2134C113.056 63.4072 112.75 63.7385 112.693 63.9323C112.637 64.1261 112.443 64.0698 112.443 64.0698C109.742 66.8577 106.329 67.7575 102.753 67.7697C99.9526 68.007 97.0145 67.9942 94.1889 67.5939C91.3633 67.1935 88.3439 66.7369 85.6622 65.1175C84.2245 64.2797 82.843 63.2481 81.6554 62.2728C80.2739 61.2411 79.0862 60.2658 77.7048 59.2342C77.1797 58.8716 76.5983 58.7027 76.267 58.3964C74.498 57.2522 72.6727 56.3018 70.7099 55.1014C69.4659 54.3199 68.0531 54.1197 66.7216 54.3634C64.7523 54.632 62.5893 54.8443 60.7576 55.363C57.3443 56.2629 53.8184 57.5503 50.7613 59.3942C48.0105 60.9068 45.2035 62.6132 42.5903 64.3758C41.7838 64.9821 41.0336 65.3946 40.4209 66.0572C40.1145 66.3885 39.7519 66.9136 39.8331 67.3574C39.6643 67.9388 39.9956 68.2452 40.6332 68.2202C43.7652 68.2893 46.9284 67.5269 49.8416 66.902C51.1732 66.6584 52.3673 66.1646 53.6426 66.1147C54.7241 66.0085 55.9993 65.9587 57.2183 66.1026C59.075 66.2215 60.8754 66.5342 62.6757 66.847C65.7514 67.1098 68.9083 67.8165 71.8963 69.1046C74.303 70.2238 76.9035 71.3993 79.0038 72.8498C81.9605 74.9693 84.1107 77.6951 84.7605 81.246C85.1916 84.1029 84.7912 86.9285 82.178 88.6912C80.0649 90.1788 77.7893 90.7787 75.1575 90.4346C72.3319 90.0343 69.5377 88.8025 66.8809 87.8208C63.6991 86.4764 60.5736 84.9383 57.6981 83.2627C55.5415 82.0059 53.4974 80.3616 51.2033 78.8548C49.9594 78.0733 48.7154 77.2917 47.4715 76.5102C46.9464 76.1476 46.365 75.9787 46.09 75.4786C44.321 74.3344 42.7707 73.8842 41.583 72.9088C41.2517 72.6025 40.6141 72.6274 40.0327 72.4586C39.4513 72.2898 38.6199 72.2584 38.0385 72.0896C37.4572 71.9207 36.8758 71.7519 36.1256 72.1644C35.6255 72.4394 34.6565 72.158 33.9626 72.3768C30.218 72.9703 26.9421 74.1202 23.6913 75.9078C21.4406 77.1454 18.8587 78.0766 16.6644 79.1204C15.7767 79.2828 15.2203 79.7516 14.4701 80.1642ZM93.7527 53.1781L93.6964 53.3719C93.8902 53.4282 93.8339 53.622 94.0839 53.4845C95.8843 53.7972 97.7096 54.7476 99.4601 53.785C99.4601 53.785 99.7102 53.6475 99.904 53.7038C100.098 53.7601 100.292 53.8164 100.485 53.8727C100.429 54.0665 100.373 54.2602 100.316 54.454C100.066 54.5915 99.8163 54.729 99.51 55.0603C100.504 55.9794 101.867 54.9043 103.054 55.8796C102.361 56.0983 101.723 56.1233 101.279 56.2045L101.223 56.3983C101.942 56.8172 102.911 57.0986 103.629 57.5175C103.823 57.5738 103.961 57.8239 104.098 58.0739C103.848 58.2114 103.598 58.349 103.404 58.2927C103.017 58.1801 102.629 58.0676 102.242 57.955C102.242 57.955 102.185 58.1488 101.992 58.0925C103.342 59.9555 104.804 61.431 105.654 63.5691C103.31 60.787 101.523 57.5361 97.7032 56.2167C98.172 56.7731 98.6408 57.3295 99.0534 58.0797C99.5222 58.6361 99.991 59.1925 99.7658 59.9677C98.3594 58.2984 97.0093 56.4354 95.1028 55.0412C95.0465 55.235 95.0465 55.235 94.9902 55.4287C96.3966 57.098 97.803 58.7672 99.0156 60.3802C99.3469 60.6866 99.4282 61.1304 99.5094 61.5743L99.2593 61.7118C98.7905 61.1554 98.5155 60.6552 98.0467 60.0988C96.7778 58.6796 95.5652 57.0667 94.2963 55.6475C93.69 54.841 92.8336 54.172 91.502 54.4157C94.0398 57.2541 96.6902 59.7049 97.9214 63.4245C96.215 60.6175 94.4524 58.0043 91.8832 55.9973C91.8832 55.9973 91.8269 56.1911 91.6332 56.1348C91.9082 56.635 92.1832 57.1351 92.4582 57.6352L92.2081 57.7728C91.7393 57.2163 91.4643 56.7162 90.9955 56.1598C90.5267 55.6034 90.0016 55.2407 89.2828 54.8218C88.2889 53.9028 88.2889 53.9028 87.3449 54.259C89.8891 55.6283 91.6268 57.6039 92.8643 59.8545C92.4768 59.742 92.283 59.6857 92.1455 59.4356C90.464 57.2662 88.2262 55.5656 85.9321 54.0588C85.407 53.6962 84.8819 53.3336 84.0754 53.9399C85.1256 54.6651 86.1758 55.3904 87.2259 56.1157C88.2198 57.0347 89.0199 57.8975 90.0138 58.8165C91.4765 60.292 91.889 61.0422 91.8577 61.8736C89.2949 58.3976 82.7189 53.5459 80.9998 53.677C83.6252 55.4902 86.2506 57.3033 87.957 60.1104C86.3817 59.0225 84.919 57.547 83.3438 56.4591C81.7685 55.3712 80.3059 53.8958 78.1991 53.9143C79.5806 54.9459 81.2121 55.84 82.5936 56.8716C83.45 57.5406 84.1125 58.1533 84.9689 58.8223C85.1627 58.8786 85.0502 59.2662 85.0502 59.2662C83.6687 58.2345 82.0934 57.1467 80.6557 56.3088C79.218 55.471 77.699 54.1893 75.7861 54.2642C76.9737 55.2395 78.2177 56.0211 79.2116 56.9401C80.2055 57.8591 81.812 58.1156 82.3307 59.9473C80.2304 58.4968 78.2676 57.2963 76.3048 56.0959C74.3419 54.8954 72.0728 54.0263 70.2161 53.9073C71.0725 54.5763 72.1227 55.3016 73.3666 56.0831C75.5232 57.3398 77.6798 58.5966 79.8364 59.8533C81.7993 61.0538 83.4557 62.5855 85.3623 63.9797C86.5499 64.9551 88.044 65.5991 89.5943 66.0493C92.3073 66.8373 95.0517 66.7938 97.9335 67.0003C100.622 67.1506 103.116 67.2446 105.642 66.5072C107.473 65.9885 109.111 65.4135 110.53 64.1446C111.393 63.3445 111.256 63.0945 110.593 62.4818C109.737 61.8128 108.88 61.1438 108.024 60.4748C107.886 60.2248 107.555 59.9184 107.418 59.6684C107.805 59.7809 108.305 59.5059 108.443 59.756C109.162 60.1749 109.881 60.5938 110.599 61.0127C110.793 61.069 110.987 61.1253 111.124 61.3753L111.375 61.2378C110.962 60.4876 110.55 59.7374 110.387 58.8497C109.893 57.6556 108.643 58.3432 107.98 57.7305C108.343 57.2054 108.649 56.8741 108.762 56.4865C107.93 56.4552 107.237 56.6739 106.405 56.6426C106.518 56.255 106.824 55.9237 106.937 55.5361C106.299 55.5611 105.524 55.336 104.886 55.3609C104.999 54.9733 105.249 54.8358 105.361 54.4483C104.53 54.4169 103.698 54.3856 103.117 54.2167L103.173 54.023C103.674 53.7479 104.117 53.6667 104.811 53.448C104.868 53.2542 104.868 53.2542 104.73 53.0041C103.455 53.054 101.986 53.0476 100.71 53.0975C100.71 53.0975 100.767 52.9037 100.573 52.8474C101.267 52.6287 101.767 52.3537 102.655 52.1912C100.329 51.5159 98.1976 50.8968 96.2034 50.5278C94.4031 50.215 92.659 49.7085 90.8023 49.5896C88.9457 49.4706 87.2265 49.6017 85.5074 49.7328C83.982 49.9202 82.4004 50.3014 81.0126 50.7389C80.8188 50.6826 80.7062 51.0702 80.6499 51.264C80.8437 51.3203 81.0375 51.3765 81.2313 51.4328C81.6752 51.3516 81.9252 51.2141 82.4254 50.9391C83.1193 50.7203 83.6194 50.4453 84.0882 51.0017C84.2257 51.2518 84.6696 51.1706 84.9196 51.0331C85.3635 50.9518 85.8636 50.6768 86.3075 50.5956C86.5576 50.4581 86.9451 50.5707 87.1389 50.6269C87.4952 51.5709 88.0516 51.1021 88.7455 50.8834C89.3832 50.8585 90.2709 50.696 90.4084 50.9461C90.8209 51.6963 91.321 51.4213 91.7649 51.34C92.2087 51.2588 92.6526 51.1776 93.1527 50.9026C93.5966 50.8213 94.0404 50.7401 94.0654 51.3778C94.0903 52.0154 93.509 51.8466 93.2589 51.9841C92.565 52.2028 91.8711 52.4215 90.9833 52.584C91.3709 52.6965 91.5084 52.9466 91.5647 52.7528C92.2586 52.5341 92.9526 52.3154 93.5902 52.2904C94.728 51.9905 95.8095 51.8843 96.9473 51.5843C97.1973 51.4468 97.4723 51.947 97.8599 52.0595C97.6098 52.197 97.3598 52.3345 97.1097 52.472C95.7219 52.9095 94.8342 53.072 93.7527 53.1781ZM63.087 80.6251C63.1433 80.4313 63.3371 80.4876 63.3934 80.2938C64.056 80.9065 64.7186 81.5192 65.1311 82.2694C66.1499 83.8261 67.1125 85.5765 68.3251 87.1895C68.6564 87.4959 68.9877 87.8022 69.319 88.1086C69.319 88.1086 69.3752 87.9148 69.569 87.9711C69.019 86.9708 68.469 85.9705 67.9189 84.9702L68.169 84.8327C69.5505 85.8643 69.569 87.9711 71.2568 88.6714C71.0381 87.9774 70.5693 87.421 70.3506 86.7271C70.1318 86.0332 69.8568 85.5331 69.6381 84.8391C69.6381 84.8391 69.6381 84.8391 69.8319 84.8954C70.8507 86.4521 71.9258 87.815 72.9446 89.3717C73.1384 89.428 73.1947 89.2342 73.3885 89.2905C73.1135 88.7903 73.0885 88.1527 72.8135 87.6525C72.5385 87.1524 72.2635 86.6523 71.9885 86.1521C72.2386 86.0146 72.2386 86.0146 72.4886 85.8771C72.9011 86.6273 73.5074 87.4338 73.92 88.184C74.195 88.6841 74.4137 89.3781 75.4389 89.4657C74.7514 88.2154 74.4514 87.0776 73.7639 85.8272C74.9516 86.8026 75.6954 87.8591 76.1891 89.0532C76.3266 89.3032 76.5204 89.3595 76.6579 89.6096C76.7142 89.4158 76.8268 89.0282 76.633 88.9719C76.2768 88.028 75.9205 87.084 75.4268 85.8899C76.8082 86.9215 77.2457 88.3094 77.9895 89.3659C78.1897 87.9531 77.4459 86.8966 76.7021 85.84C78.2524 86.2903 78.1897 87.9531 79.1836 88.8722C79.5775 87.5157 79.0275 86.5154 78.4775 85.5151L78.7275 85.3776C79.3339 86.1841 79.8839 87.1844 80.4902 87.9908C80.5465 87.7971 80.8528 87.4658 80.8528 87.4658C80.1403 85.5778 79.6216 83.7461 78.7966 82.2457C77.7528 80.0513 75.6525 78.6008 73.9397 77.2628C73.9397 77.2628 73.8835 77.4566 73.6897 77.4004C73.6334 77.5941 73.7709 77.8442 73.7146 78.038C72.9958 77.6191 72.4144 77.4502 71.6955 77.0313C72.5206 78.5317 73.4019 79.8384 74.0331 81.2825L73.7831 81.42C72.3517 79.1131 70.6703 76.9437 68.3762 75.4369C67.9886 75.3244 67.7948 75.2681 67.4635 74.9617C67.4073 75.1555 67.4073 75.1555 67.351 75.3493C67.6823 75.6557 68.0136 75.962 68.0948 76.4059C68.4261 76.7122 68.7574 77.0186 68.8949 77.2686C68.8386 77.4624 68.6448 77.4061 68.5885 77.5999C66.3507 75.8993 64.7256 73.5362 61.6499 73.2733C62.6438 74.1924 63.694 74.9176 64.6878 75.8367C64.6878 75.8367 64.6316 76.0305 64.4378 75.9742C62.8625 74.8863 61.3436 73.6046 59.7683 72.5167C59.712 72.7105 59.712 72.7105 59.462 72.848C61.1747 74.186 63.3876 75.2489 64.4314 77.4432C63.2437 76.4679 62.1123 75.2988 60.6746 74.461C59.4306 73.6794 58.0492 72.6478 56.33 72.7789C58.3741 74.4233 60.5307 75.68 62.0183 77.7931C61.8245 77.7368 61.6307 77.6805 61.4369 77.6243C60.3056 76.4551 59.1179 75.4798 57.8739 74.6983C56.5737 74.1105 55.5798 73.1915 54.3359 72.4099C53.4232 71.9347 52.398 71.8471 51.3165 71.9533C54.5233 73.9353 57.7863 75.7235 60.3241 78.5619C58.6926 77.6678 57.3674 76.4424 55.9297 75.6045C54.4919 74.7667 52.8041 74.0664 51.1726 73.1723L51.1163 73.3661C51.9727 74.0351 52.579 74.8416 53.4354 75.5105C53.3791 75.7043 53.1853 75.648 53.129 75.8418C51.4163 74.5039 50.0099 72.8346 47.4343 72.2968C48.7595 73.5222 50.1973 74.36 50.7722 75.9979C50.2472 75.6353 49.5846 75.0226 49.0595 74.6599C47.5968 73.1845 46.1341 71.709 43.6648 72.2526C43.471 72.1964 43.471 72.1964 43.2772 72.1401C42.502 71.915 41.977 71.5523 41.2018 71.3272C40.6204 71.1584 39.9828 71.1833 39.3452 71.2083L39.2889 71.402C39.4827 71.4583 39.6765 71.5146 39.8702 71.5709C42.4458 72.1087 44.4086 73.3092 46.2026 75.091C46.8651 75.7037 47.7215 76.3727 48.4404 76.7916C48.9655 77.1542 49.3531 77.2668 49.8781 77.6294L49.9344 77.4356C49.8532 76.9918 49.5782 76.4916 49.497 76.0478L49.747 75.9103C51.0473 76.498 50.9283 78.3547 52.4223 78.9987C52.3411 78.5548 52.2036 78.3048 52.0661 78.0547C51.9286 77.8047 52.0411 77.4171 51.9036 77.167L52.1537 77.0295C52.9787 78.5299 53.9976 80.0866 55.379 81.1182C55.104 80.6181 54.829 80.1179 54.554 79.6178C54.279 79.1177 54.1977 78.6738 53.979 77.9799L54.2291 77.8424C54.3666 78.0924 54.7542 78.205 54.8917 78.4551C55.773 79.7617 56.7106 80.8745 57.5919 82.1812C58.0607 82.7376 58.417 83.6816 59.4422 83.7692C58.9798 81.7437 57.5171 80.2682 56.5545 78.5177C57.5484 79.4368 58.7361 80.4121 59.4799 81.4687C60.2237 82.5252 60.9113 83.7756 61.6551 84.8321C61.9864 85.1385 62.3739 85.251 62.7052 85.5574L62.7615 85.3636C61.6052 83.5568 60.4488 81.7501 59.2925 79.9433C60.7053 80.1435 61.8117 80.675 62.7493 81.7878C63.9057 83.5946 65.062 85.4013 66.2746 87.0143C66.4121 87.2644 66.7997 87.3769 67.131 87.6833C66.6187 84.3825 64.5747 82.7382 63.087 80.6251ZM57.24 35.6396C58.184 35.2833 58.9342 34.8708 59.6281 34.6521C59.8782 34.5146 60.2095 34.8209 60.4032 34.8772C60.347 35.071 60.0969 35.2085 60.0406 35.4023C59.2904 35.8148 58.5965 36.0335 57.8463 36.446C57.0961 36.8586 56.2896 37.4649 56.3395 38.7402C56.5895 38.6027 57.0334 38.5214 57.2835 38.3839C57.7836 38.1089 58.2837 37.8339 58.7839 37.5589C59.0339 37.4214 59.3652 37.7277 59.7528 37.8403C59.6965 38.0341 59.584 38.4217 59.3339 38.5592C59.2776 38.7529 59.0838 38.6967 58.89 38.6404C57.8898 39.1904 56.6957 39.6842 55.6954 40.2342C55.9705 40.7343 56.3017 41.0407 56.633 41.347C56.8268 41.4033 57.0206 41.4596 57.4082 41.5721C58.0458 41.5472 58.9336 41.3847 59.5712 41.3598C59.8213 41.2223 60.0713 41.0848 60.3214 40.9473C61.1029 39.7033 61.8845 38.4594 62.4722 37.1591C63.0037 36.0527 63.5352 34.9463 63.8729 33.7835C64.1543 32.8146 64.6857 31.7081 64.6358 30.4329C64.0231 31.0954 63.4667 31.5642 62.9103 32.033C62.7165 31.9768 62.7728 31.783 62.579 31.7267C63.0542 30.814 63.4731 30.0952 63.9483 29.1825C63.5607 29.07 63.3107 29.2075 62.9231 29.0949C63.4546 27.9885 63.736 27.0195 64.3487 26.3569C64.9614 25.6943 64.8801 25.2505 64.8552 24.6128C64.7177 24.3628 64.774 24.169 64.8302 23.9752C64.6678 23.0875 64.5053 22.1998 63.7052 21.337C63.1738 22.4434 62.586 23.7437 61.7232 24.5438C61.8672 23.3248 62.2048 22.162 62.4862 21.1931C62.7114 20.418 62.3801 20.1116 61.7987 19.9428C61.2173 19.7739 60.3859 19.7426 59.7483 19.7675C59.5545 19.7112 58.9981 20.1801 58.9981 20.1801C59.1042 21.2616 59.2667 22.1493 59.5104 23.4808C59.9293 22.762 60.0981 22.1806 60.2107 21.793L60.4045 21.8493C60.3482 22.0431 60.4294 22.487 60.3731 22.6807C60.2043 23.2621 59.8417 23.7872 59.479 24.3123C59.4227 24.5061 58.9789 24.5873 58.9226 24.7811C58.7851 24.531 58.4538 24.2246 58.5101 24.0309C58.3726 23.7808 58.4851 23.3932 58.3476 23.1431C58.3227 22.5055 58.1602 21.6178 58.1353 20.9801C58.1103 20.3425 57.529 20.1737 57.0288 20.4487C55.916 21.3863 54.6657 22.0738 53.5528 23.0114C53.2465 23.3427 53.0214 24.1179 52.8525 24.6992C52.346 26.4433 51.8958 27.9936 51.3329 29.9315C51.0579 29.4314 50.9204 29.1813 50.7829 28.9312C50.364 29.6501 49.9451 30.369 49.7763 30.9503L49.5825 30.894C49.6138 30.0626 49.8389 29.2875 49.8703 28.456C48.1447 30.0562 48.6884 32.5256 47.2378 34.6259C47.2129 33.9883 47.1317 33.5444 46.9942 33.2943C46.7441 33.4318 46.4377 33.7631 46.3815 33.9569C46.3501 34.7883 46.0687 35.7573 46.0374 36.5887C45.8686 37.1701 45.8935 37.8077 45.2559 37.8327C45.0621 37.7764 44.9495 38.164 44.8932 38.3577C44.6368 39.9643 44.6304 41.4334 44.1801 42.9837C43.7862 44.3402 45.0301 45.1218 45.1363 46.2033C45.2489 45.8157 45.3614 45.4281 45.474 45.0405C45.6678 45.0968 45.6678 45.0968 45.8616 45.1531C46.024 46.0408 46.2427 46.7347 46.599 47.6787C46.599 47.6787 46.7928 47.735 46.849 47.5412C46.8804 46.7098 46.6616 46.0159 46.693 45.1844C46.7493 44.9906 46.6118 44.7406 46.668 44.5468C47.4745 43.9405 47.3121 43.0528 47.1496 42.1651C47.2059 41.9713 47.2622 41.7775 47.3185 41.5837C47.9248 42.3902 48.4498 42.7528 48.3622 43.778C48.1371 44.5532 48.4934 45.4972 48.7121 46.1911C48.9059 46.2474 48.9059 46.2474 49.1559 46.1099C49.2685 45.7223 49.5749 45.391 49.4936 44.9471C49.1687 43.1717 48.7875 41.5901 48.6564 39.8709C48.494 38.9832 48.3315 38.0955 48.3066 37.4579L48.5566 37.3204C48.6941 37.5704 48.8316 37.8205 48.9692 38.0706C49.2691 39.2084 49.3753 40.2899 49.6752 41.4276C49.894 42.1216 49.8064 43.1468 50.6627 43.8158C50.5815 43.3719 50.6941 42.9843 50.5566 42.7343C50.0129 40.2649 49.4693 37.7956 48.7319 35.2699C48.5944 35.0199 48.7069 34.6323 48.7632 34.4385C48.957 34.4948 49.0133 34.301 49.2071 34.3573C49.7507 36.8266 50.5444 39.1585 51.088 41.6278C51.2818 41.6841 51.3381 41.4903 51.5319 41.5466C51.2134 38.3021 50.0634 35.0262 49.9387 31.838C51.0388 33.8386 50.9448 36.3329 51.7947 38.4709C51.97 36.4205 51.0637 34.4762 50.9889 32.5633C51.4014 33.3135 51.8139 34.0637 52.0326 34.7576C52.5513 36.5893 53.0137 38.6148 53.7262 40.5028C53.8637 40.7529 54.0012 41.0029 54.0825 41.4468L54.3325 41.3093C54.4515 39.4526 53.2389 37.8397 52.914 36.0642C52.6453 34.095 52.1266 32.2633 51.8017 30.4879C51.8017 30.4879 51.9955 30.5442 52.0518 30.3504C53.3706 33.0449 53.3015 36.1768 54.5641 39.0651C55.1767 38.4025 55.4831 38.0712 55.0706 37.321C54.7956 36.8208 54.5768 36.1269 54.3581 35.433C53.952 33.2137 53.4895 31.1882 53.2772 29.0252C53.196 28.5814 53.3648 28 53.2836 27.5561C53.4774 27.6124 53.4774 27.6124 53.7275 27.4749C53.9462 28.1688 53.9711 28.8065 54.1899 29.5004C54.4086 30.1943 54.3773 31.0258 55.0961 31.4447C55.4274 31.751 55.6462 32.445 55.9212 32.9451C56.1399 33.639 56.3586 34.3329 56.3836 34.9706C56.3836 34.9706 56.5774 35.0269 56.6337 34.8331C57.0027 32.8389 55.7088 30.7821 56.1341 28.5941C56.4904 29.5381 56.8466 30.4821 57.0091 31.3698L57.2591 31.2323C56.9342 29.4569 56.2217 27.5689 56.3407 25.7123C57.5846 26.4938 56.9406 27.9878 57.797 28.6568C57.5284 26.6876 57.2597 24.7184 57.0474 22.5554C57.2412 22.6117 57.2975 22.4179 57.4913 22.4742C57.7663 22.9743 58.0413 23.4744 58.0662 24.1121C58.5037 25.4999 57.916 26.8002 59.0473 27.9693L58.9911 28.1631C58.7659 28.9382 58.7909 29.5759 58.5658 30.351C58.1155 31.9013 57.609 33.6454 57.3525 35.252C57.1587 35.1957 57.2962 35.4458 57.24 35.6396ZM18.2582 82.315C18.452 82.3713 18.5895 82.6213 18.5895 82.6213C19.8085 82.7652 20.8337 82.8528 22.0527 82.9967C24.4907 83.2845 26.9601 82.7409 29.1544 81.6971C29.9046 81.2846 30.5423 81.2597 31.43 81.0972C31.3737 81.291 31.5675 81.3473 31.5112 81.5411C30.3171 82.0348 29.0668 82.7223 27.6789 83.1598C26.2911 83.5973 24.9595 83.8409 23.5717 84.2784C24.8719 84.8662 26.066 84.3724 27.4538 83.935C28.5916 83.635 29.842 82.9475 30.7859 82.5912C31.036 82.4537 31.2298 82.51 31.4236 82.5663C31.4236 82.5663 31.3673 82.7601 31.5611 82.8163C31.0047 83.2851 30.3108 83.5039 29.7543 83.9727L29.8918 84.2228C30.1419 84.0852 30.5858 84.004 30.8358 83.8665C31.5298 83.6478 32.28 83.2352 33.0302 82.8227C33.2802 82.6852 33.4177 82.9353 33.6678 82.7978C33.6115 82.9916 33.499 83.3791 33.499 83.3791C32.1924 84.2605 30.6919 85.0855 29.0291 85.0228C28.3914 85.0478 27.7538 85.0727 26.8661 85.2352C27.3349 85.7916 27.4724 86.0417 27.6099 86.2917C28.2725 86.9044 28.7413 87.4609 29.3476 88.2673C29.4851 88.5174 29.4288 88.7112 29.3725 88.905C29.1787 88.8487 28.9287 88.9862 28.7912 88.7361C28.5974 88.6799 28.4599 88.4298 28.4599 88.4298C27.9911 87.8734 27.5472 87.9546 27.1283 88.6735C27.5159 88.786 28.041 89.1487 28.4285 89.2612C30.2539 90.2116 32.0229 91.3558 34.017 91.7248C35.4298 91.925 36.9801 92.3752 38.4492 92.3816C41.1373 92.5319 43.6316 92.6259 46.2385 92.3323C48.6515 91.9825 50.377 90.3823 50.8586 88.0006C51.14 87.0316 51.0901 85.7563 50.6776 85.0061C49.8526 83.5057 48.4148 82.6679 46.9208 82.0239C46.0082 81.5487 45.0955 81.0735 44.1266 80.7921C42.5763 80.3418 40.8885 79.6415 39.2819 79.3851C36.2625 78.9284 33.3806 78.7219 30.4111 79.5405C28.3294 80.1967 25.9163 80.5466 23.8908 81.009C21.4215 81.5526 19.8398 81.9338 18.2582 82.315ZM127.819 21.2555C126.438 20.2239 124.888 19.7737 123.281 19.5172C122.312 19.2358 121.231 19.342 120.287 19.6982C119.787 19.9732 119.093 20.192 118.592 20.467C117.205 20.9044 115.954 21.592 114.623 21.8357C112.654 22.1043 111.016 22.6793 109.459 23.6981C108.209 24.3856 107.096 25.3232 105.845 26.0108C105.377 25.4543 105.683 25.123 106.046 24.598C107.44 22.6914 109.384 21.7852 111.11 20.185C112.585 18.7223 114.336 17.7597 116.005 16.3533C115.286 15.9344 115.398 15.5468 116.286 15.3844C117.174 15.2219 118.005 15.2533 118.893 15.0908C119.337 15.0096 119.587 14.8721 119.781 14.9284C119.781 14.9284 119.837 14.7346 119.643 14.6783C119.256 14.5657 118.812 14.647 118.174 14.6719C117.73 14.7531 117.343 14.6406 116.705 14.6655C116.761 14.4717 116.818 14.2779 116.818 14.2779C118.399 13.8968 120.2 14.2095 121.644 13.5782C121.644 13.5782 121.7 13.3844 121.506 13.3282C120.425 13.4343 119.15 13.4842 117.874 13.5341C117.931 13.3403 117.931 13.3403 117.793 13.0903C118.624 13.1216 119.262 13.0967 119.956 12.8779L120.012 12.6841C119.375 12.7091 118.737 12.734 118.349 12.6215C118.406 12.4277 118.406 12.4277 118.268 12.1776C120.044 11.8527 121.981 12.4155 123.676 11.6467L123.732 11.453C122.457 11.5029 121.238 11.359 119.962 11.4088C121.794 10.8902 123.845 11.0654 125.539 10.2966C125.595 10.1028 125.595 10.1028 125.457 9.85277C123.738 9.98389 122.019 10.115 120.106 10.1898C120.106 10.1898 120.163 9.99605 119.969 9.93977C122.188 9.53364 124.376 9.95894 126.295 8.41503C125.158 8.71499 123.882 8.76488 122.551 9.00856C124.107 7.98973 126.183 8.8026 127.327 7.03357C126.939 6.92101 126.746 6.86473 126.746 6.86473C127.108 6.33965 127.415 6.00835 127.527 5.62078C127.527 5.62078 127.333 5.5645 127.39 5.37071C127.14 5.50822 126.696 5.58944 126.446 5.72695C126.502 5.53316 126.752 5.39565 126.752 5.39565C127.002 5.25815 127.39 5.37071 127.446 5.17692C127.502 4.98313 127.615 4.59556 127.671 4.40177C127.477 4.34549 127.146 4.03914 126.896 4.17665C125.646 4.86418 124.201 5.49544 122.951 6.18297C119.369 7.66421 116.587 10.0082 114.88 13.7151C114.211 14.5715 113.486 15.6217 112.817 16.478C111.898 17.4719 110.785 18.4095 109.866 19.4034C109.003 20.2035 108.196 20.8098 107.334 21.6099C105.108 23.4851 102.826 25.5541 100.6 27.4293C99.2374 28.5044 97.487 29.467 95.7928 30.2357C93.042 31.7483 90.235 33.4547 87.4842 34.9673C87.2342 35.1048 86.9841 35.2423 86.7903 35.186C86.0714 34.7671 85.7088 35.2922 85.4025 35.6235C83.4269 37.3612 81.645 39.1551 79.3944 40.3927C79.1444 40.5302 79.0318 40.9178 78.7817 41.0553C79.1693 41.1678 79.4194 41.0303 79.6132 41.0866C82.0576 39.9053 84.752 38.5866 87.1964 37.4053C88.6406 36.774 89.8346 36.2803 90.0911 34.6737C90.1474 34.4799 90.3974 34.3424 90.6475 34.2049C92.0916 33.5736 93.6733 33.1924 94.7049 31.811C94.7612 31.6172 95.2613 31.3422 95.5114 31.2047C97.4556 30.2984 99.1498 29.5296 101.038 28.8172C103.176 27.9672 105.176 26.8671 107.508 26.0734C108.452 25.7172 109.621 24.5858 110.809 25.5611L111.003 25.6174C112.028 25.705 113.053 25.7926 114.135 25.6865C115.354 25.8304 116.629 25.7805 117.848 25.9244C116.385 24.4489 114.804 24.8301 113.166 25.4051C113.585 24.6862 113.697 24.2986 114.06 23.7735C114.254 23.8298 114.698 23.7486 114.948 23.6111C116.392 22.9798 117.667 22.9299 119.055 22.4925C120.386 22.2488 121.581 21.755 122.937 22.149C123.712 22.3741 124.681 22.6555 125.456 22.8807C126.038 23.0495 126.481 22.9683 126.707 22.1931C125.35 21.7992 124.187 21.4615 123.025 21.1238C123.081 20.93 123.081 20.93 123.137 20.7362C124.663 20.5488 126.157 21.1928 127.819 21.2555ZM99.8507 21.3279L99.9883 21.578C100.682 21.3592 101.182 21.0842 101.876 20.8655C102.126 20.728 102.57 20.6468 102.82 20.5093C103.07 20.3717 103.652 20.5406 103.708 20.3468C104.321 19.6842 104.852 18.5778 105.602 18.1652C107.965 16.5401 108.56 13.7708 109.873 11.4204L109.929 11.2266C110.242 9.42624 110.442 8.01345 110.698 6.40687C110.73 5.57544 110.705 4.93779 110.486 4.24387C110.048 2.85602 108.861 1.88069 107.723 2.18065C106.835 2.34311 106.029 2.94941 105.279 3.36193C104.779 3.63695 104.61 4.21831 104.247 4.74339C104.022 5.51854 103.934 6.54376 103.709 7.31891C103.322 7.20635 103.128 7.15007 102.74 7.03751C102.321 7.75638 102.678 8.70037 101.596 8.80654C101.596 8.80654 101.483 9.19412 101.427 9.3879C101.452 10.0255 101.477 10.6632 101.502 11.3008C101.446 11.4946 101.389 11.6884 101.471 12.1323C101.277 12.076 101.277 12.076 101.027 12.2135C100.896 10.4944 100.571 8.71893 100.44 6.99978C100.246 6.9435 100.246 6.9435 100.052 6.88722C99.9396 7.2748 99.8833 7.46859 99.7707 7.85616C99.8206 9.13145 99.9268 10.2129 99.7829 11.432C99.7266 11.6257 99.6141 12.0133 99.5578 12.2071C99.364 12.1508 99.364 12.1508 99.1702 12.0945C99.064 11.013 98.9016 10.1253 98.7954 9.04383C98.8517 8.85005 98.6579 8.79376 98.5204 8.5437C98.4641 8.73748 98.2141 8.87499 98.1578 9.06878C98.1015 9.26257 98.2953 9.31885 98.239 9.51263C98.3452 10.5941 98.2576 11.6194 98.3637 12.7009C98.1699 12.6446 98.1699 12.6446 97.9199 12.7821C97.7574 11.8944 97.595 11.0067 97.3762 10.3127C97.3762 10.3127 97.1824 10.2565 97.1262 10.4502C96.5634 12.3881 97.4134 14.5262 97.4882 16.4391C97.2944 16.3828 97.2944 16.3828 97.0443 16.5203C96.7444 15.3825 96.4444 14.2448 96.0069 12.8569L95.8132 12.8006C95.7006 13.1882 95.588 13.5758 95.6693 14.0196C95.9942 15.7951 96.1816 17.3204 96.5628 18.9021C96.7003 19.1521 96.644 19.3459 96.5314 19.7335C96.3376 19.6772 96.2813 19.871 96.0876 19.8147C95.7876 18.6769 95.3501 17.2891 95.0502 16.1513C95.0502 16.1513 94.8564 16.095 94.8001 16.2888C94.6875 16.6764 94.6313 16.8702 94.5187 17.2577C94.6249 18.3392 94.731 19.4207 95.031 20.5585C95.1685 20.8086 95.056 21.1962 94.9434 21.5837C94.8059 21.3337 94.4183 21.2211 94.2808 20.971L94.087 20.9148C94.0307 21.1086 94.0307 21.1086 93.9745 21.3023C93.7743 22.7151 93.5178 24.3217 93.3176 25.7345C93.2614 25.9283 93.2051 26.1221 93.3989 26.1784C94.2552 26.8473 93.6988 27.3161 93.3362 27.8412C92.4171 28.8351 91.6919 29.8853 90.7728 30.8792L90.9103 31.1292C91.4668 30.6604 92.1607 30.4417 92.7171 29.9729C93.6362 28.979 94.1676 27.8726 94.8929 26.8224C95.1992 26.4911 95.3118 26.1035 95.4244 25.716C95.5369 25.3284 95.5932 25.1346 95.8995 24.8033C96.2059 24.472 96.5122 24.1407 96.8186 23.8094C98.1566 22.0967 99.5508 20.1901 100.889 18.4774C101.614 17.4272 102.396 16.1833 102.79 14.8267C103.49 13.1389 104.44 11.3136 105.141 9.62581C105.647 7.88172 106.154 6.13763 108.292 5.28764C107.704 6.58788 106.979 7.63804 106.447 8.74449L106.641 8.80077C106.891 8.66326 106.947 8.46947 107.197 8.33197C107.504 8.00067 107.673 7.41931 107.979 7.08801C108.035 6.89423 108.423 7.00679 108.673 6.86928C108.617 7.06307 108.698 7.50692 108.448 7.64443C107.972 8.55709 107.11 9.35718 106.191 10.3511C105.941 10.4886 105.828 10.8761 105.715 11.2637C105.909 11.32 105.853 11.5138 106.047 11.5701C106.409 11.045 106.966 10.5762 107.466 10.3012C107.716 10.1637 107.91 10.2199 108.354 10.1387C108.297 10.3325 108.185 10.7201 107.935 10.8576C107.128 11.4639 106.378 11.8764 105.628 12.2889C105.128 12.564 104.821 12.8953 104.984 13.783C105.734 13.3704 106.234 13.0954 106.791 12.6266C107.041 12.4891 107.234 12.5454 107.485 12.4079C107.428 12.6017 107.316 12.9893 107.259 13.183C107.009 13.3206 106.759 13.4581 106.509 13.5956C106.453 13.7894 106.34 14.1769 106.34 14.1769C106.809 14.7333 106.253 15.2021 106.003 15.3397C105.252 15.7522 104.696 16.221 104.002 16.4397C102.864 16.7397 102.389 17.6523 101.72 18.5087L101.858 18.7588C102.858 18.2087 103.721 17.4086 104.721 16.8586L104.915 16.9149C104.802 17.3025 104.746 17.4963 104.44 17.8276C103.521 18.8214 102.464 19.5653 101.132 19.8089C100.576 20.2777 100.27 20.609 99.8507 21.3279ZM108.164 34.6691C109.327 35.0068 109.327 35.0068 109.802 34.0942C109.914 33.7066 110.164 33.5691 110.414 33.4316C110.665 33.2941 110.858 33.3503 111.108 33.2128C111.246 33.4629 111.133 33.8505 111.077 34.0443C110.964 34.4318 110.714 34.5694 110.602 34.9569C110.602 34.9569 110.796 35.0132 110.739 35.207C111.74 34.657 112.409 33.8006 113.878 33.807C113.265 34.4696 112.902 34.9947 112.54 35.5197C113.121 35.6886 113.565 35.6074 113.953 35.7199C115.309 36.1139 116.778 36.1203 118.303 35.9329C118.497 35.9891 118.691 36.0454 118.885 36.1017C119.716 36.133 120.573 36.802 121.242 35.9456C121.298 35.7519 121.685 35.8644 121.879 35.9207C122.792 36.3959 123.204 37.1461 123.561 38.0901C122.898 37.4774 122.179 37.0585 121.517 36.4458L121.46 36.6396C122.148 37.8899 123.448 38.4777 123.886 39.8655C122.804 39.9717 122.029 39.7466 121.479 38.7463C121.26 38.0524 120.485 37.8272 119.822 37.2145C119.929 38.296 121.035 38.8275 120.447 40.1278C119.541 38.1835 118.022 36.9018 115.834 36.4765C116.497 37.0892 117.216 37.5081 117.878 38.1208C118.872 39.0399 119.091 39.7338 118.672 40.4527C117.516 38.6459 116.303 37.0329 114.059 36.8014C114.14 37.2453 114.471 37.5516 114.803 37.858C115.465 38.4707 116.128 39.0834 116.734 39.8898C116.871 40.1399 116.815 40.3337 116.703 40.7213C116.509 40.665 116.121 40.5524 116.178 40.3586C115.159 38.802 113.583 37.7141 112.008 36.6262C111.814 36.5699 111.427 36.4573 111.233 36.4011L111.177 36.5948C111.314 36.8449 111.508 36.9012 111.646 37.1513C112.833 38.1266 114.021 39.1019 114.458 40.4898C114.596 40.7398 114.483 41.1274 114.427 41.3212C114.233 41.2649 113.902 40.9586 113.708 40.9023C113.102 40.0958 112.552 39.0955 111.752 38.2328C110.758 37.3137 109.57 36.3384 107.907 36.2757C108.57 36.8884 109.289 37.3073 109.951 37.92C110.614 38.5327 111.858 39.3143 111.214 40.8083C111.158 41.0021 111.295 41.2521 111.433 41.5022C112.289 42.1712 113.145 42.8402 114.002 43.5091L114.058 43.3154C113.258 42.4526 112.652 41.6461 111.795 40.9771C111.852 40.7833 111.852 40.7833 112.102 40.6458C112.627 41.0085 113.289 41.6212 113.814 41.9838C114.146 42.2901 114.614 42.8466 115.171 42.3778C115.227 42.184 115.558 42.4903 115.946 42.6029C116.334 42.7154 116.471 42.9655 116.802 43.2719C116.64 42.3841 117.084 42.3029 117.609 42.6655C118.134 43.0282 118.659 43.3908 119.184 43.7534C119.378 43.8097 119.766 43.9223 119.959 43.9786L120.016 43.7848C119.353 43.1721 118.747 42.3656 118.084 41.7529L118.14 41.5591C119.247 42.0906 120.297 42.8158 121.403 43.3473C121.46 43.1535 121.46 43.1535 121.516 42.9597C120.853 42.347 120.328 41.9844 119.666 41.3717L119.722 41.1779C120.303 41.3468 120.635 41.6531 121.216 41.8219C121.797 41.9908 122.21 42.741 123.016 42.1347C124.379 41.0596 124.805 38.8716 124.036 37.1774C123.817 36.4835 123.211 35.677 122.686 35.3144C121.248 34.4766 119.754 33.8325 118.26 33.1885C116.047 32.1256 113.803 31.8941 111.39 32.2439C107.007 32.8624 102.682 33.2871 98.2743 33.2679C97.2491 33.1803 96.3051 33.5365 95.2236 33.6427C95.8548 35.0868 97.2113 35.4808 97.9551 36.5373C97.9551 36.5373 98.0114 36.3436 98.2052 36.3998C97.8739 36.0935 97.5989 35.5933 97.2676 35.287C97.2676 35.287 97.3239 35.0932 97.5177 35.1495C98.5116 36.0685 99.6992 37.0439 100.637 38.1567L100.887 38.0192C100.087 37.1564 99.4805 36.3499 98.7367 35.2934C99.9244 36.2687 100.862 37.3816 102.05 38.3569C103.237 39.3322 104.287 40.0575 105.475 41.0328C104.65 39.5324 102.962 38.8321 102.387 37.1941C102.581 37.2504 102.969 37.363 102.912 37.5568C103.737 39.0572 105.231 39.7012 106.419 40.6766C106.613 40.7328 106.944 41.0392 106.888 41.233C107.269 42.8146 108.488 42.9585 109.595 43.49C109.788 43.5463 110.176 43.6588 110.426 43.5213L110.482 43.3275C110.345 43.0775 109.957 42.9649 109.82 42.7148C109.682 42.4648 109.351 42.1584 109.213 41.9083C110.295 41.8022 110.714 41.0833 110.164 40.083C109.282 38.7764 107.982 38.1886 106.795 37.2133C106.932 37.4634 107.263 37.7697 107.401 38.0198C108.063 38.6325 108.532 39.1889 109.195 39.8016C109.389 39.8579 109.276 40.2455 109.22 40.4393C109.026 40.383 108.832 40.3267 108.638 40.2704C107.451 39.2951 106.513 38.1823 105.325 37.2069C104.994 36.9006 104.8 36.8443 104.469 36.538C104.469 36.538 104.413 36.7317 104.219 36.6755C104.688 37.2319 105.157 37.7883 105.875 38.2072C106.401 38.5698 107.063 39.1825 107.032 40.014C106.644 39.9014 106.507 39.6513 106.369 39.4013C104.85 38.1196 103.638 36.5066 101.756 35.75C101.562 35.6937 101.231 35.3874 101.093 35.1373C101.481 35.2499 101.731 35.1124 102.119 35.2249C102.506 35.3375 102.838 35.6438 103.088 35.5063C103.975 35.3439 104.669 35.1252 105.557 34.9627C105.751 35.019 105.888 35.2691 106.026 35.5191C106.638 34.8565 107.195 34.3877 107.751 33.9189C108.001 33.7814 108.389 33.894 108.639 33.7565C108.526 34.1441 108.47 34.3378 108.358 34.7254C108.664 34.3941 108.414 34.5316 108.164 34.6691ZM26.9765 40.7191C27.1703 40.7754 27.1703 40.7754 26.9765 40.7191C27.6954 41.138 28.1079 41.8882 28.5767 42.4446L28.8268 42.3071C28.333 41.1131 27.7018 39.6689 27.2081 38.4749C27.0705 38.2248 26.683 38.1122 26.4329 38.2497C25.3514 38.3559 24.6261 39.4061 24.7323 40.4876C24.8135 40.9314 24.8385 41.5691 24.7259 41.9567C24.6134 42.3442 24.6946 42.7881 24.582 43.1757L24.3882 43.1194C24.032 42.1754 23.9258 41.0939 23.5696 40.1499L23.3758 40.0936C23.3195 40.2874 23.207 40.675 23.3445 40.925C23.4506 42.0065 23.6131 42.8943 23.7193 43.9758C23.663 44.1695 23.6067 44.3633 23.5504 44.5571C23.3566 44.5008 23.2191 44.2508 23.0816 44.0007C23.0004 43.5568 22.9192 43.113 22.8379 42.6691C22.7567 42.2253 22.6755 41.7814 22.538 41.5314C22.3442 41.4751 22.2879 41.6689 22.0941 41.6126C21.9189 43.663 22.7689 45.8011 22.3436 47.989C21.9061 46.6012 21.5249 45.0195 21.0875 43.6317C20.8937 43.5754 20.8374 43.7692 20.6436 43.7129C20.2746 45.7071 21.6247 47.5701 21.5058 49.4268L21.2557 49.5643C20.8995 48.6203 20.5432 47.6763 20.1307 46.9261C20.1307 46.9261 19.9369 46.8698 19.8806 47.0636C20.2618 48.6452 20.643 50.2268 21.0242 51.8085L20.7741 51.946C20.4179 51.002 19.9241 49.8079 19.5679 48.8639C19.4553 49.2515 19.399 49.4453 19.3428 49.6391C20.0552 51.5271 20.5177 53.5526 21.2301 55.4406C21.3676 55.6906 21.3114 55.8844 21.1988 56.272C20.6737 55.9094 20.5362 55.6593 20.2049 55.3529L19.9548 55.4905C20.7236 57.1846 21.2986 58.8226 22.0673 60.5168L22.3174 60.3793C22.0175 59.2415 21.5237 58.0474 21.2237 56.9096C21.4175 56.9659 21.4738 56.7721 21.6676 56.8284C22.7114 59.0227 23.5614 61.1608 24.6051 63.3551C24.6051 63.3551 24.6051 63.3551 24.7989 63.4114C24.0615 60.8858 23.5179 58.4164 22.7804 55.8908C23.0305 55.7533 23.3368 55.422 23.5869 55.2845C25.1308 57.2038 25.5619 60.0607 27.0495 62.1738C27.4998 60.6235 26.3684 59.4544 26.0684 58.3167C25.631 56.9288 24.9434 55.6785 24.506 54.2906C24.0122 53.0965 23.5748 51.7087 23.081 50.5146C23.2748 50.5709 23.3311 50.3771 23.5249 50.4334C25.1749 53.4342 26.2686 56.9039 27.975 59.7109C28.2065 57.4667 26.8564 55.6036 26.2002 53.5218C25.7378 51.4964 24.5814 49.6896 23.7314 47.5515C23.9252 47.6078 23.9815 47.414 24.1753 47.4703C24.669 48.6644 25.4128 49.7209 25.9066 50.915L26.1567 50.7775C26.1381 48.6708 25.8695 46.7016 25.8509 44.5948L26.101 44.4573C27.2573 46.2641 28.4699 47.8771 28.8761 50.0963L29.1261 49.9588C28.5262 47.6833 27.9263 45.4077 27.3264 43.1322C28.7078 44.1638 28.4514 45.7703 29.389 46.8832C29.0641 45.1078 28.0203 42.9134 26.9765 40.7191ZM76.7505 36.4728C78.5073 34.0412 80.0704 31.5533 81.9648 29.3717C84.4156 26.7214 85.9537 23.5959 86.9668 20.1077C87.5296 18.1698 88.0924 16.2319 88.6552 14.294C88.824 13.7127 88.6616 12.825 88.6366 12.1873C88.8055 11.606 88.8368 10.7745 88.6744 9.88682C88.6807 8.41774 88.0495 6.97361 87.4182 5.52948C87.3933 4.89184 86.9245 4.33542 86.0931 4.30409C86.0304 5.96695 86.024 7.43603 85.8801 8.65503C86.1551 9.15517 86.6802 9.5178 86.6239 9.71158C86.3988 10.4867 86.0362 11.0118 85.811 11.787C85.6422 12.3683 85.2796 12.8934 85.1107 13.4748C85.3045 13.5311 85.3045 13.5311 85.4983 13.5873C85.9172 12.8685 86.5299 12.2059 86.9488 11.487C87.1426 11.5433 87.1426 11.5433 87.3364 11.5996C87.2801 11.7934 87.3613 12.2372 87.1113 12.3747C86.5798 13.4812 85.9108 14.3375 85.3794 15.444C84.9604 16.1629 84.7916 16.7442 84.5665 17.5194C84.7603 17.5757 84.7603 17.5757 84.954 17.6319C85.7605 17.0256 86.6233 16.2255 87.4298 15.6192L87.5673 15.8693C87.511 16.0631 87.3985 16.4507 87.1484 16.5882C85.9793 17.7195 84.7539 19.0447 83.391 20.1198C82.5845 20.7261 82.6094 21.3638 82.328 22.3327C82.8844 21.8639 83.3283 21.7827 83.8284 21.5077C84.0785 21.3702 84.4661 21.4827 84.6599 21.539C84.6036 21.7328 84.491 22.1204 84.4347 22.3142C83.8783 22.783 83.1844 23.0017 82.4342 23.4142C81.9341 23.6892 81.3776 24.158 81.7339 25.102C82.0402 24.7707 82.3466 24.4394 82.6529 24.1081C82.903 23.9706 83.1531 23.8331 83.4031 23.6956C83.2906 24.0832 83.4281 24.3333 83.3155 24.7208C82.9529 25.2459 82.5903 25.771 82.0901 26.046L82.2839 26.1023C82.3651 26.5462 82.5839 27.2401 82.3338 27.3776C81.9149 28.0965 81.2459 28.9528 80.4394 29.5591C79.883 30.0279 79.3829 30.303 78.964 31.0218C78.8514 31.4094 78.6013 31.5469 78.295 31.8782L78.1012 31.8219C77.995 30.7404 78.4139 30.0216 78.8891 29.1089C79.308 28.39 79.2268 27.9462 78.5079 27.5273C78.2828 28.3024 78.0014 29.2714 77.5825 29.9902C77.4699 30.3778 77.0261 30.459 76.776 30.5965C76.8886 30.209 76.7511 29.9589 76.8636 29.5713C77.2263 29.0462 77.3951 28.4649 76.9263 27.9085C75.77 26.1017 74.6699 24.1011 73.5136 22.2944C73.3761 22.0443 73.3761 22.0443 73.1823 21.988C73.0697 22.3756 72.9572 22.7632 73.0384 23.207C73.2571 23.901 73.7259 24.4574 74.0009 24.9575C74.551 25.9578 75.3511 26.8206 75.9011 27.8208C76.0386 28.0709 75.926 28.4585 76.0635 28.7085C75.676 28.596 75.4822 28.5397 75.1509 28.2334C74.8196 27.927 74.7384 27.4832 74.4071 27.1768C74.1321 26.6767 73.857 26.1765 73.582 25.6764L73.332 25.8139C73.4132 26.2578 73.3006 26.6453 73.4381 26.8954C73.8507 27.6456 74.5132 28.2583 74.982 28.8147C75.2571 29.3149 75.7821 29.6775 76.1134 29.9838C75.6945 30.7027 75.6945 30.7027 76.4946 31.5655C76.8259 31.8718 77.1572 32.1782 76.6008 32.647C76.0693 33.7534 76.0879 35.8601 76.7505 36.4728ZM0.0607128 79.1313L-0.133077 79.075C-0.189359 79.2688 -0.383139 79.2125 -0.439421 79.4063C-1.1084 80.2627 -1.63988 81.3691 -2.44636 81.9755C-3.55919 82.9131 -4.67202 83.8507 -5.72858 84.5945C-8.20432 86.6072 -10.7363 88.8137 -13.3496 90.5763C-15.519 92.2578 -17.6321 93.7454 -19.939 95.1767C-22.2459 96.6081 -24.6903 97.7894 -26.9972 99.2207C-27.4973 99.4957 -27.7474 99.6332 -28.1912 99.7145C-27.9162 100.215 -27.5849 100.521 -27.5037 100.965C-27.8913 100.852 -28.5289 100.877 -28.9165 100.765C-29.1103 100.708 -29.5541 100.79 -29.7479 100.733C-29.4729 101.233 -29.3354 101.484 -29.0604 101.984C-29.5042 102.065 -29.8918 101.952 -30.3357 102.034C-30.5295 101.977 -30.7795 102.115 -30.9733 102.058L-31.0296 102.252C-30.8921 102.502 -30.5045 102.615 -30.2295 103.115C-31.2547 103.027 -31.8924 103.052 -32.53 103.077L-32.5863 103.271C-32.1987 103.384 -32.0049 103.44 -31.6736 103.746C-30.761 104.221 -29.8733 104.059 -29.123 103.646C-27.8164 102.765 -26.7036 101.828 -25.397 100.946C-23.7277 99.5398 -22.0585 98.1334 -20.3892 96.727C-17.3571 94.2455 -13.8561 92.3204 -10.6052 90.5328C-8.35461 89.2953 -5.7727 88.3641 -3.32829 87.1828C1.0041 85.289 5.06147 82.8951 9.61259 81.6953C9.86265 81.5578 10.1127 81.4203 10.2502 81.6703C11.2441 82.5894 12.4945 81.9018 13.7135 82.0457C14.101 82.1583 14.3511 82.0208 14.795 81.9396L14.8512 81.7458C14.2136 81.7707 13.576 81.7957 12.9383 81.8206C12.5507 81.7081 12.357 81.6518 11.9694 81.5392C12.0819 81.1516 11.9444 80.9016 12.1945 80.7641C13.001 80.1578 14.0013 79.6077 14.8077 79.0014C15.808 78.4514 17.0021 77.9576 18.0023 77.4076C18.0023 77.4076 18.0586 77.2138 17.8648 77.1575C17.421 77.2388 16.8396 77.0699 16.3958 77.1512C14.2577 78.0011 12.3697 78.7136 10.4255 79.6199C8.23113 80.6637 6.28687 81.5699 4.23004 82.8638C2.72963 83.6888 1.14799 84.07 -0.571158 84.2011C-1.45887 84.3636 -1.73388 83.8634 -1.50875 83.0883C-1.39619 82.7007 -1.08985 82.3694 -0.921007 81.7881C-0.777113 80.5691 -0.358194 79.8502 0.0607128 79.1313ZM28.7303 70.8572C28.7303 70.8572 28.6741 71.051 28.8678 71.1072C31.9186 70.7324 34.888 69.9138 37.995 69.3452C38.0513 69.1514 38.0513 69.1514 37.9138 68.9014C37.0888 67.401 37.6765 66.1007 38.7894 65.1631C39.9585 64.0317 41.4589 63.2067 42.7092 62.5191C43.2656 62.0503 43.7658 61.7753 43.6033 60.8876C43.4658 60.6376 43.7722 60.3063 43.8847 59.9187C44.5288 58.4247 45.3666 56.9869 46.0669 55.2991C46.5421 54.3865 46.6297 53.3612 47.1049 52.4486C47.2737 51.8672 47.5801 51.5359 48.3552 51.761C48.549 51.8173 48.7991 51.6798 49.0492 51.5423C50.0494 50.9923 50.8559 50.386 51.8562 49.8359C53.7755 48.292 55.8886 46.8044 57.3391 44.7041C57.758 43.9852 58.3707 43.3226 58.7897 42.6037C58.5959 42.5475 58.6521 42.3537 58.4584 42.2974C56.8767 42.6786 55.2951 43.0598 53.6572 43.6347C53.4071 43.7723 53.157 43.9098 53.1008 44.1035C52.0691 45.485 51.2313 46.9227 50.3372 48.5543C49.9183 49.2731 49.4745 49.3544 48.9494 48.9917C48.5618 48.8792 48.4243 48.6291 48.093 48.3228C48.1742 48.7666 48.2554 49.2105 48.2804 49.8481C47.8928 49.7356 47.6428 49.8731 47.0614 49.7042C47.0051 49.898 46.9488 50.0918 46.8925 50.2856C47.2488 51.2296 46.9424 51.5609 46.1673 51.3357C45.8859 52.3047 45.6045 53.2736 45.3794 54.0488C44.7353 55.5428 43.9538 56.7867 42.9785 57.9744C42.2532 59.0246 41.4717 60.2685 40.5526 61.2624C39.8836 62.1188 38.8271 62.8626 37.9643 63.6627C36.5451 64.9316 35.376 66.063 34.0131 67.1381C32.2313 68.9321 30.4808 69.8946 28.7303 70.8572ZM32.7153 40.4946C32.5215 40.4383 32.5215 40.4383 32.3278 40.382C32.0464 41.351 31.9587 42.3762 31.6773 43.3451C31.4835 43.2888 31.4835 43.2888 31.2898 43.2326C31.2085 42.7887 31.1836 42.151 30.9086 41.6509C30.6585 41.7884 30.5459 42.176 30.3522 42.1197C29.6582 42.3384 29.4894 42.9198 30.0145 43.2824C30.8146 44.1452 30.5332 45.1141 30.6393 46.1957C30.7206 46.6395 30.5517 47.2209 30.4392 47.6084C30.1514 50.0465 29.9199 52.2907 29.8258 54.785C29.6193 57.6668 28.5001 60.0735 27.7121 62.7865C27.6558 62.9803 27.7371 63.4242 27.6808 63.618C28.1246 63.5368 28.5122 63.6493 28.6248 63.2617C29.2375 62.5991 29.6564 61.8803 30.0753 61.1614C29.744 60.8551 29.5502 60.7988 29.2189 60.4924C29.9691 60.0799 30.5255 59.6111 31.332 59.0048C30.9445 58.8922 30.7507 58.836 30.5569 58.7797C30.9758 58.0608 31.5885 57.3982 32.0074 56.6793C32.3138 56.348 32.2325 55.9042 32.5389 55.5729C32.9578 54.854 33.3204 54.3289 33.7393 53.6101C33.7393 53.6101 33.5455 53.5538 33.6018 53.36C33.1017 53.635 32.6015 53.91 32.0451 54.3788C32.5203 53.4662 33.1893 52.6098 33.6645 51.6971C34.0271 51.1721 34.196 50.5907 33.4771 50.1718C33.2833 50.1155 33.3959 49.7279 33.4521 49.5342C33.5647 49.1466 33.871 48.8153 34.0399 48.2339C34.1524 47.8463 34.0712 47.4025 34.1838 47.0149C33.6837 47.2899 33.3773 47.6212 32.9334 47.7025C33.0773 46.4834 33.5525 45.5708 33.6402 44.5456C33.7278 43.5203 34.5905 42.7202 33.7092 41.4136C33.2027 43.1577 33.4713 45.1269 32.0521 46.3958C32.3086 44.7892 32.7339 42.6013 32.7153 40.4946ZM2.92464 70.7172C3.1747 70.5797 3.36849 70.636 3.36849 70.636C5.11897 69.6734 6.92573 68.5171 8.67621 67.5546C8.98256 67.2233 9.03884 67.0295 9.03884 67.0295C9.77049 64.5102 10.2521 62.1285 9.26457 59.7404C8.00206 56.8521 6.95191 56.1269 4.39494 57.6957C4.33866 57.8895 4.14487 57.8332 4.0886 58.027C3.72596 58.5521 3.16955 59.0209 3.25077 59.4648C3.68824 60.8526 4.31949 62.2967 4.95074 63.7409C5.75723 63.1346 6.56372 62.5282 7.12014 62.0594C7.17642 61.8657 7.56399 61.9782 7.75778 62.0345C7.7015 62.2283 7.64522 62.4221 7.58894 62.6159C6.97623 63.2785 6.16975 63.8848 5.55705 64.5474C5.30698 64.6849 5.19442 65.0724 4.88807 65.4037C4.88807 65.4037 5.08187 65.46 5.02559 65.6538C5.52572 65.3788 5.83207 65.0475 6.3322 64.7725C6.58227 64.635 6.77606 64.6912 6.96985 64.7475C6.91357 64.9413 6.801 65.3289 6.55093 65.4664C5.93823 66.129 5.18804 66.5415 4.57534 67.2041L4.71284 67.4542C5.40677 67.2354 6.10069 67.0167 6.73834 66.9918L6.87584 67.2418C6.3757 67.5168 5.87557 67.7919 5.56922 68.1231C5.0128 68.592 4.34382 69.4483 3.64989 69.6671C3.26232 69.5545 3.14976 69.9421 2.92464 70.7172ZM71.677 74.9246L71.6207 75.1184C73.4211 75.4311 75.0839 75.4938 76.9156 74.9751C76.9156 74.9751 76.8593 75.1689 77.0531 75.2252C76.6093 75.3064 76.3029 75.6377 75.8591 75.7189L75.8028 75.9127C76.2466 75.8315 76.6342 75.9441 77.2719 75.9191C77.4657 75.9754 77.797 76.2817 77.9907 76.338C77.7407 76.4755 77.4343 76.8068 77.2405 76.7505C76.9905 76.8881 76.7967 76.8318 76.4091 76.7192C76.3528 76.913 76.3528 76.913 76.2965 77.1068C76.6841 77.2194 77.3218 77.1944 77.7093 77.307C78.9283 77.4509 78.9283 77.4509 78.1468 78.6948C78.7844 78.6699 79.2283 78.5886 79.6159 78.7012C80.0035 78.8138 80.391 78.9263 80.5848 78.9826C80.3347 79.1201 80.0284 79.4514 79.7783 79.5889L79.722 79.7827C80.3284 80.5892 80.941 79.9266 81.3849 79.8454C81.3037 79.4015 81.4162 79.0139 81.335 78.5701C79.9037 76.2632 77.5846 74.1187 74.7091 72.4431C73.7965 71.9679 72.6337 71.6302 71.7774 70.9612C71.2523 70.5986 71.0585 70.5423 70.5021 71.0111C70.0019 71.2862 69.5581 71.3674 68.9204 71.3923C67.3951 71.5797 65.926 71.5733 64.4569 71.5669C64.0131 71.6482 63.763 71.7857 63.3192 71.8669C64.6194 72.4547 66.0322 72.6548 67.3638 72.4112C68.8891 72.2238 70.4145 72.0364 71.8835 72.0427C72.0773 72.099 72.2148 72.3491 72.4086 72.4054C72.1586 72.5429 72.1023 72.7367 71.9085 72.6804C71.4646 72.7616 70.827 72.7866 70.3831 72.8678C69.4954 73.0302 68.664 72.9989 67.5825 73.1051C69.8203 74.8057 72.1522 74.012 74.5089 73.8559C74.4527 74.0497 74.4527 74.0497 74.5902 74.2998C73.6462 74.656 72.5647 74.7622 71.677 74.9246ZM69.0893 70.811C69.1456 70.6172 69.1456 70.6172 69.2018 70.4234C69.0081 70.3671 68.8143 70.3108 68.6768 70.0608C68.483 70.0045 68.2892 69.9482 68.0954 69.8919C66.1889 68.4977 63.8321 68.6537 61.8379 68.2847C60.6189 68.1408 59.2061 67.9406 57.9871 67.7968C56.7681 67.6529 55.3553 67.4527 54.08 67.5026C52.6109 67.4962 51.2231 67.9336 49.6415 68.3148C49.4477 68.2586 49.3914 68.4523 49.1976 68.3961C48.0598 68.696 46.7283 68.9397 45.5342 69.4334C44.8403 69.6522 44.2026 69.6771 43.7588 69.7583C43.7025 69.9521 43.7025 69.9521 43.84 70.2022C44.2839 70.121 45.2528 70.4024 45.9467 70.1836C47.0845 69.8837 47.891 69.2774 48.835 68.9211C49.2788 68.8399 49.5289 68.7024 49.8039 69.2025C50.0789 69.7027 50.2727 69.759 50.7729 69.484C51.7168 69.1277 52.6608 68.7715 53.6048 68.4152C53.8549 68.2777 54.4363 68.4466 54.5738 68.6966C54.8488 69.1968 54.4049 69.278 53.9611 69.3592C53.2671 69.578 52.767 69.853 52.1294 69.8779C52.0731 70.0717 52.2669 70.128 52.2106 70.3218C52.4044 70.378 52.8482 70.2968 53.042 70.3531C53.986 69.9969 54.93 69.6406 55.874 69.2844C57.0681 68.7906 57.0681 68.7906 56.8679 70.2034C58.2557 69.766 59.3935 69.466 60.5876 68.9723L60.7251 69.2223C60.1373 70.5226 58.587 70.0723 57.5305 70.8161C59.4684 71.3789 61.3001 70.8602 62.8817 70.4791C64.0195 70.1791 63.9632 70.3729 64.0694 71.4544C65.7885 71.3233 67.3701 70.9421 69.0893 70.811ZM-0.126071 71.092C-0.126071 71.092 0.067719 71.1483 -0.126071 71.092C-0.0947325 70.2606 -0.450982 69.3166 -0.613431 68.4289L-0.363359 68.2914C-0.0883471 68.7915 0.186663 69.2916 0.461673 69.7918L0.711754 69.6543C0.274285 68.2664 -0.356976 66.8223 -0.988228 65.3782L-0.738166 65.2407C-0.188134 66.2409 0.418177 67.0474 0.968202 68.0477C0.749471 67.3538 0.587019 66.4661 0.368289 65.7721L0.618351 65.6346C1.03087 66.3848 1.2496 67.0788 1.66213 67.829C1.66213 67.829 1.85592 67.8852 1.9122 67.6915C1.80603 66.61 1.56235 65.2784 1.45618 64.1969C1.81242 65.1409 2.11238 66.2787 2.6624 67.2789L2.91247 67.1414C2.39378 65.3097 1.87509 63.478 1.4939 61.8964C2.73786 62.6779 2.48139 64.2845 3.22521 65.3411C3.47528 65.2036 3.47528 65.2035 3.47528 65.2035C3.95047 64.2909 3.43817 60.9901 2.77558 60.3774C2.58179 60.3211 2.19421 60.2086 2.13793 60.4024C1.46895 61.2587 0.606188 62.0588 0.131 62.9715C-1.06945 64.9343 -2.01983 66.7596 -2.30762 69.1976C-2.70798 72.0232 -1.72049 74.4113 -0.289134 76.7182C-0.289134 76.7182 -0.0953533 76.7745 -0.0390719 76.5807C-0.589094 75.5805 -0.889055 74.4427 -1.3828 73.2486C-0.995223 73.3612 -0.607652 73.4738 -0.163797 73.3925C-0.520039 72.4485 -0.682488 71.5608 -1.03873 70.6168L-0.788666 70.4793C-0.594876 70.5356 -0.457365 70.7857 -0.126071 71.092ZM74.6149 11.2671C74.5586 11.4608 74.3085 11.5983 74.3085 11.5983C74.0271 12.5673 73.5519 13.4799 73.4643 14.5052C73.2641 15.918 72.6764 17.2182 74.1953 18.4999C75.5205 19.7253 76.2893 21.4195 77.3081 22.9761C77.5831 23.4763 77.9144 23.7826 78.1894 24.2828L78.4395 24.1453C78.302 23.8952 78.3583 23.7014 78.2208 23.4513C76.9832 21.2007 75.6081 18.7 74.3706 16.4494C74.2331 16.1994 74.1518 15.7555 74.0143 15.5054L74.2644 15.3679C75.752 17.481 77.2397 19.5941 78.4772 21.8448C77.6023 19.0691 76.0334 16.5121 74.2708 13.8989C74.7146 13.8176 75.1022 13.9302 75.2397 14.1803C75.846 14.9867 76.4523 15.7932 77.0024 16.7935C77.5524 17.7938 78.1587 18.6003 78.6524 19.7943C79.4903 18.3566 76.5214 12.6613 74.6149 11.2671ZM81.8976 12.9619C82.179 11.9929 82.5416 11.4678 81.9353 10.6614C81.1102 9.16095 80.0914 7.60425 79.0163 6.24135C78.8788 5.99128 78.8788 5.99128 78.7413 5.74122L78.7976 5.54743C78.9914 5.60371 79.3789 5.71627 79.5164 5.96634C80.3978 7.27296 81.2791 8.57958 82.1604 9.88621C82.7667 10.6927 83.123 11.6367 83.673 12.637L83.9231 12.4995C84.1795 10.8929 83.2982 9.58625 82.8044 8.39218C82.1169 7.14184 81.2356 5.83522 80.548 4.58488L80.7981 4.44737C82.5109 5.78533 83.3609 7.92338 84.5172 9.73014C84.436 9.28629 84.5485 8.89871 84.2172 8.59236C83.6672 7.59209 83.311 6.6481 82.7609 5.64782C81.7172 3.45349 81.3296 3.34093 79.2728 4.63477C79.2728 4.63477 79.2728 4.63477 79.0227 4.77228C78.2162 5.37859 77.2159 5.92861 76.8783 7.09134C79.7288 8.12934 80.4099 10.8488 81.8976 12.9619ZM76.0559 43.2055C75.6684 43.0929 75.6683 43.0929 75.5308 42.8429C74.6182 42.3677 74.3432 41.8675 74.6246 40.8986C74.6809 40.7048 74.7934 40.3172 74.8497 40.1235C75.0185 39.5421 74.881 39.292 74.4372 39.3733C74.0496 39.2607 73.7995 39.3982 73.6057 39.3419C73.3806 40.1171 73.1555 40.8922 72.7929 41.4173C70.8985 43.5989 69.0604 45.5866 67.0285 47.5181C66.4158 48.1807 65.8594 48.6495 65.303 49.1183C65.303 49.1183 65.4968 49.1746 65.4405 49.3684C69.2727 47.7496 72.6362 45.5745 76.0559 43.2055ZM111.121 30.2747C109.021 28.8242 107.083 28.2614 104.945 29.1114C104.001 29.4676 102.807 29.9613 102.607 31.3741C102.438 31.9555 102.769 32.2618 103.213 32.1806C103.657 32.0994 104.294 32.0744 104.738 31.9932C106.264 31.8058 107.789 31.6184 109.371 31.2372C109.952 31.4061 110.565 30.7435 111.121 30.2747ZM74.6462 10.4356C77.1028 12.8301 78.6153 15.5809 80.3217 18.3879C80.6843 17.8628 80.7969 17.4753 80.7157 17.0314C79.7282 14.6433 78.5469 12.1989 77.3093 9.94826C77.0343 9.44813 76.3154 9.02922 76.0404 8.52908C75.6215 9.24795 75.2026 9.96682 74.6462 10.4356ZM63.4649 51.1061C62.3834 51.2122 55.4627 55.5063 55.0438 56.2252C58.3759 54.8814 61.708 53.5377 65.0401 52.194C65.0401 52.194 65.0964 52.0002 64.9026 51.9439C64.4588 52.0251 64.0149 52.1063 63.5711 52.1876C63.6836 51.8 63.6024 51.3561 63.4649 51.1061ZM77.4015 26.9958C77.8204 26.2769 77.933 25.8893 77.5204 25.1391C76.6954 23.6387 75.8141 22.3321 74.989 20.8317C74.5765 20.0815 73.9139 19.4688 73.5014 18.7186C73.3076 18.6623 73.2513 18.8561 73.0576 18.7998C73.1388 19.2437 72.8324 19.575 73.1637 19.8813C73.9888 21.3817 75.0076 22.9384 75.8326 24.4388C76.3264 25.6329 76.7952 26.1893 77.4015 26.9958ZM2.468 73.7366C2.41172 73.9304 2.60551 73.9867 2.54924 74.1805C3.24316 73.9617 4.07459 73.9931 4.631 73.5243C5.74383 72.5866 6.52538 71.3427 7.50071 70.155C7.80706 69.8237 7.9759 69.2424 8.28225 68.9111L8.08845 68.8548C6.53176 69.8736 4.72501 71.03 3.16832 72.0488C3.74969 72.2176 4.36238 71.555 4.7749 72.3052C3.77463 72.8553 3.02442 73.2678 2.468 73.7366ZM81.0534 15.8687C81.2471 15.925 81.3034 15.7312 81.4972 15.7874C81.416 15.3436 81.5848 14.7622 81.5036 14.3184C80.4035 12.3178 79.3035 10.3173 78.0096 8.26046C77.6783 7.95411 77.3471 7.64776 76.7657 7.47891C76.5719 7.42263 76.3218 7.56014 76.2656 7.75393C76.2656 7.75393 76.3468 8.19779 76.5406 8.25407C77.0094 8.81048 77.7282 9.22939 78.0033 9.72953C78.6096 10.536 79.1596 11.5363 79.5158 12.4803C80.0096 13.6743 80.5033 14.8684 81.0534 15.8687ZM66.1779 51.894C66.1216 52.0878 66.3154 52.1441 66.2591 52.3379C66.6467 52.4504 67.0906 52.3692 67.6719 52.538C68.0595 52.6506 68.5034 52.5694 68.7534 52.4319C69.5849 52.4632 70.36 52.6883 71.1352 52.9134C71.9666 52.9448 72.9918 53.0324 73.8233 53.0637C74.6547 53.0951 75.4049 52.6825 76.0988 52.4638C76.5427 52.3826 77.0428 52.1076 77.7367 51.8888L77.5992 51.6388C76.9616 51.6637 76.2677 51.8824 75.4362 51.8511C73.467 52.1197 71.4978 52.3884 69.5036 52.0193C68.7285 51.7942 67.8971 51.7629 67.0656 51.7315C66.8718 51.6753 66.6218 51.8128 66.1779 51.894ZM97.0054 31.8487L97.1429 32.0988C98.4182 32.0489 99.6372 32.1928 100.912 32.1429C101.138 31.3677 101.669 30.2613 102.007 29.0986C100.256 30.0611 98.6996 31.0799 97.0054 31.8487ZM23.6356 69.5877C23.0478 70.8879 22.2663 72.1319 21.4285 73.5696C22.1224 73.3509 22.8163 73.1321 23.5102 72.9134C23.704 72.9697 23.8166 72.5821 23.8729 72.3883C23.9605 71.3631 23.798 70.4754 23.6356 69.5877ZM26.8071 47.8144C26.8071 47.8144 26.6133 47.7581 26.557 47.9519C26.5506 49.421 26.1567 50.7775 27.2318 52.1404C27.7006 52.6968 27.863 53.5845 28.2755 54.3347C28.2755 54.3347 28.2755 54.3347 28.5256 54.1972C27.8694 52.1154 27.4633 49.8962 26.8071 47.8144ZM27.0066 52.9155C26.5315 53.8282 27.2375 57.1853 28.3689 58.3544C28.3504 56.2477 27.5816 54.5535 27.0066 52.9155ZM82.9791 12.8557C82.4476 13.9621 82.635 15.4875 83.6852 16.2127C84.5479 15.4127 84.0292 13.5809 82.9791 12.8557ZM25.9553 65.2182C26.4554 64.9432 26.4554 64.9432 26.3492 63.8617C24.6927 62.3299 24.4804 60.1669 23.5741 58.2226C23.8741 59.3604 24.1741 60.4982 24.5303 61.4422C25.024 62.6363 25.5178 63.8303 25.9553 65.2182ZM81.0843 85.2215C81.4783 83.865 80.022 80.9205 78.528 80.2764C79.353 81.7769 80.1218 83.471 81.0843 85.2215ZM72.2307 36.8412C72.1744 37.035 72.1744 37.035 72.1181 37.2288C73.0308 37.704 73.8059 37.9291 74.7186 38.4043C74.9124 38.4606 75.1062 38.5169 75.1062 38.5169C75.3562 38.3794 75.6626 38.0481 75.9126 37.9106C75.7189 37.8543 75.5813 37.6042 75.1938 37.4917C75 37.4354 74.8062 37.3791 74.6124 37.3228C73.8935 36.9039 73.0621 36.8726 72.2307 36.8412ZM24.4478 74.0262L24.3103 73.7762C22.2286 74.4324 20.2843 75.3386 18.4775 76.495L18.615 76.745C20.6156 75.645 22.5599 74.7387 24.4478 74.0262ZM82.5163 81.0145C81.4035 81.9521 81.4534 83.2274 82.7785 84.4528C82.7286 83.1775 82.6225 82.096 82.5163 81.0145ZM64.5056 85.8701L64.7557 85.7326C63.7368 84.1759 62.718 82.6192 61.6429 81.2563L61.3928 81.3938C62.6617 82.813 63.6806 84.3697 64.5056 85.8701ZM83.091 18.9821C83.2036 18.5945 83.3161 18.2069 83.4287 17.8193C82.9036 17.4567 82.3785 17.0941 81.7159 16.4814C81.7972 16.9252 81.6283 17.5066 81.7658 17.7567C82.2909 18.1193 82.6222 18.4256 83.091 18.9821ZM103.865 16.1896C104.421 15.7208 105.171 15.3083 105.728 14.8395C104.315 14.6393 103.815 14.9144 103.865 16.1896ZM101.909 7.00617C102.021 6.6186 101.94 6.17474 102.19 6.03724C102.44 5.89973 102.69 5.76222 102.94 5.62471C102.94 5.62471 103.134 5.681 103.078 5.87478C103.19 5.48721 103.247 5.29342 103.222 4.65578C101.721 5.48082 101.415 5.81211 101.909 7.00617ZM51.8446 39.7462C51.8446 39.7462 51.6508 39.6899 51.5946 39.8837C51.8133 40.5776 52.2258 41.3278 52.4446 42.0218C52.3883 42.2156 52.8321 42.1343 53.0259 42.1906C53.0822 41.9968 53.1385 41.803 53.1385 41.803C52.726 41.0528 52.3134 40.3026 51.8446 39.7462ZM25.9093 88.5296C25.9093 88.5296 25.9656 88.3358 26.1594 88.3921C25.4968 87.7794 24.6967 86.9166 24.0341 86.3039C23.9778 86.4977 23.784 86.4414 23.7277 86.6352C24.3903 87.2479 25.2467 87.9169 25.9093 88.5296ZM94.4171 34.249C95.0797 34.8617 95.7423 35.4744 96.4048 36.0871C95.9111 34.893 94.9172 33.974 94.4171 34.249ZM28.8082 40.2004C29.1459 39.0377 28.8709 38.5375 27.902 38.2561C28.3145 39.0063 28.5332 39.7003 28.8082 40.2004ZM122.574 22.6741C122.518 22.8679 122.518 22.8679 122.462 23.0617C123.237 23.2868 123.956 23.7057 124.731 23.9308C124.787 23.737 124.787 23.737 124.844 23.5432C124.068 23.3181 123.35 22.8992 122.574 22.6741ZM80.3652 21.1323C79.5024 21.9324 79.7212 22.6263 80.8276 23.1578C80.6089 22.4638 80.5277 22.02 80.3652 21.1323ZM84.5863 6.5982C84.6425 6.40442 84.8363 6.4607 84.8926 6.26691C84.4238 5.71049 84.0113 4.96029 83.5425 4.40387L83.2924 4.54138C83.7049 5.29158 84.1737 5.848 84.5863 6.5982ZM81.5337 26.5148C80.5897 26.8711 80.2834 27.2024 80.3895 28.2839C80.7522 27.7588 81.1148 27.2337 81.5337 26.5148ZM81.3719 19.1132C81.1781 19.0569 80.928 19.1944 80.928 19.1944C81.0092 19.6383 81.0342 20.2759 81.1154 20.7198C81.3092 20.776 81.3092 20.776 81.5593 20.6385C81.478 20.1947 81.4531 19.557 81.3719 19.1132ZM50.3813 44.7847C50.4626 45.2285 50.35 45.6161 50.4312 46.06C50.9876 45.5912 51.1002 45.2036 50.3813 44.7847Z" fill="url(#paint0_linear_53_453)"/>
<defs>
<linearGradient id="paint0_linear_53_453" x1="86.7326" y1="-71.2141" x2="-32.3399" y2="338.78" gradientUnits="userSpaceOnUse">
<stop stop-color="#AE803F"/>
<stop offset="0.2019" stop-color="#C4A266"/>
<stop offset="0.4009" stop-color="#D7BE86"/>
<stop offset="0.5108" stop-color="#DEC992"/>
<stop offset="1" stop-color="#DEC992"/>
</linearGradient>
</defs>
</svg>
