<svg width="134" height="54" viewBox="0 0 134 54" fill="none" xmlns="http://www.w3.org/2000/svg">
<g clip-path="url(#clip0_53_435)">
<path fill-rule="evenodd" clip-rule="evenodd" d="M53.4029 0L40.0029 7.65818V22.9745L53.4029 30.6327L66.8029 22.9745V7.65818L53.4029 0Z" fill="url(#paint0_linear_53_435)"/>
<path fill-rule="evenodd" clip-rule="evenodd" d="M80.597 0L75.4735 2.94545L81.9765 6.67636V23.9564L75.4735 27.6873L80.597 30.6327L94.1941 22.9745V7.65818L80.597 0Z" fill="url(#paint1_linear_53_435)"/>
<path fill-rule="evenodd" clip-rule="evenodd" d="M67 0L61.6794 2.94545L68.3794 6.67636V23.9564L61.6794 27.6873L67 30.6327L80.4 22.9745V7.65818L67 0Z" fill="url(#paint2_linear_53_435)"/>
<path fill-rule="evenodd" clip-rule="evenodd" d="M43.353 41.6291V52.4291C43.353 53.2145 43.9442 53.8036 44.7324 53.8036H54.3883H55.7677C56.556 53.8036 57.1471 53.2145 57.1471 52.4291V45.5564H48.8707V48.3054H54.3883V51.0545H46.1119V42.8073H57.1471V40.0582H44.7324C43.9442 40.4509 43.353 41.04 43.353 41.6291Z" fill="url(#paint3_linear_53_435)"/>
<path fill-rule="evenodd" clip-rule="evenodd" d="M96.5588 41.6291V52.4291C96.5588 53.2145 97.15 53.8036 97.9383 53.8036H109.368C110.156 53.8036 110.747 53.2145 110.747 52.4291V41.6291C110.747 40.8436 110.156 40.2545 109.368 40.2545H97.9383C97.15 40.4509 96.5588 41.04 96.5588 41.6291ZM99.1206 51.2509V43.0036H107.791V51.2509H99.1206Z" fill="url(#paint4_linear_53_435)"/>
<path fill-rule="evenodd" clip-rule="evenodd" d="M0 54C0 49.0909 0 43.3964 0 38.4873C0 37.8982 0.985294 37.7018 1.57647 37.7018H3.54706C4.72941 37.7018 4.92647 38.0946 5.32059 38.4873C6.30588 40.0582 11.6265 49.4837 12.6118 51.2509C14.7794 47.52 17.3412 42.8073 19.5088 39.0764C20.1 37.8982 20.2971 37.7018 21.0853 37.7018H23.2529C24.0412 37.7018 24.8294 37.8982 24.8294 38.6837C24.8294 43.0037 24.8294 49.8764 24.8294 54.1964H21.8735V40.2546C20.4941 42.6109 16.5529 50.2691 14.9765 52.6255C14.7794 53.0182 14.3853 54 13.7941 54H11.2324C10.6412 54 10.05 53.0182 9.65588 52.4291C7.48824 48.6982 5.12353 43.7891 2.95588 40.0582V54H0Z" fill="url(#paint5_linear_53_435)"/>
<path fill-rule="evenodd" clip-rule="evenodd" d="M27.1941 41.6291V52.4291C27.1941 53.2145 27.7853 53.8036 28.5735 53.8036H40.9882V51.0545H29.9529V48.3054H40.9882V45.5564H29.9529V42.8073H40.9882V40.0582H28.5735C27.7853 40.4509 27.1941 41.04 27.1941 41.6291Z" fill="url(#paint6_linear_53_435)"/>
<path fill-rule="evenodd" clip-rule="evenodd" d="M70.153 41.8255C69.7589 41.04 68.9706 40.4509 67.7883 40.4509C66.6059 40.4509 65.8177 41.04 65.4236 41.8255L58.3295 54.1964H61.4824L63.0589 51.4473H72.5177L74.0942 54.1964H77.2471L70.153 41.8255ZM64.6353 48.5018L67.7883 43.0037L70.9412 48.5018H64.6353Z" fill="url(#paint7_linear_53_435)"/>
<path fill-rule="evenodd" clip-rule="evenodd" d="M78.6265 39.0764V52.4291C78.6265 53.2146 79.4147 54 80.2029 54H94.1941V51.2509H81.5823V40.2546H94.1941V37.5055H80.4C79.4147 37.5055 78.6265 38.2909 78.6265 39.0764Z" fill="url(#paint8_linear_53_435)"/>
<path fill-rule="evenodd" clip-rule="evenodd" d="M112.915 54C112.915 49.68 112.915 45.36 112.915 41.04C112.915 40.4509 113.9 40.2545 114.294 40.2545H116.462C117.447 40.2545 117.447 40.6473 117.644 41.04C118.432 42.4145 122.571 49.68 123.359 51.2509C125.132 48.1091 127.103 44.7709 128.876 41.6291C129.468 40.6473 129.665 40.2545 130.256 40.2545H132.621C133.212 40.2545 134 40.4509 134 41.04C134 44.7709 134 50.2691 134 53.8036H131.241V42.8073C130.059 44.7709 126.906 50.2691 125.724 52.4291C125.526 52.8218 125.132 53.8036 124.541 53.8036H122.373C121.782 53.8036 121.388 53.0182 121.191 52.4291C119.418 49.2873 117.447 45.9491 115.674 42.8073V53.8036L112.915 54Z" fill="url(#paint9_linear_53_435)"/>
</g>
<defs>
<linearGradient id="paint0_linear_53_435" x1="-1.60171" y1="15.3327" x2="145.361" y2="15.3327" gradientUnits="userSpaceOnUse">
<stop stop-color="#AE803F"/>
<stop offset="0.2019" stop-color="#C4A266"/>
<stop offset="0.4009" stop-color="#D7BE86"/>
<stop offset="0.5108" stop-color="#DEC992"/>
<stop offset="1" stop-color="#DEC992"/>
</linearGradient>
<linearGradient id="paint1_linear_53_435" x1="-1.60171" y1="15.3219" x2="145.361" y2="15.3219" gradientUnits="userSpaceOnUse">
<stop stop-color="#AE803F"/>
<stop offset="0.2019" stop-color="#C4A266"/>
<stop offset="0.4009" stop-color="#D7BE86"/>
<stop offset="0.5108" stop-color="#DEC992"/>
<stop offset="1" stop-color="#DEC992"/>
</linearGradient>
<linearGradient id="paint2_linear_53_435" x1="-1.60169" y1="15.3219" x2="145.361" y2="15.3219" gradientUnits="userSpaceOnUse">
<stop stop-color="#AE803F"/>
<stop offset="0.2019" stop-color="#C4A266"/>
<stop offset="0.4009" stop-color="#D7BE86"/>
<stop offset="0.5108" stop-color="#DEC992"/>
<stop offset="1" stop-color="#DEC992"/>
</linearGradient>
<linearGradient id="paint3_linear_53_435" x1="-1.60161" y1="47.1754" x2="145.361" y2="47.1754" gradientUnits="userSpaceOnUse">
<stop stop-color="#AE803F"/>
<stop offset="0.2019" stop-color="#C4A266"/>
<stop offset="0.4009" stop-color="#D7BE86"/>
<stop offset="0.5108" stop-color="#DEC992"/>
<stop offset="1" stop-color="#DEC992"/>
</linearGradient>
<linearGradient id="paint4_linear_53_435" x1="-1.60166" y1="47.1752" x2="145.361" y2="47.1752" gradientUnits="userSpaceOnUse">
<stop stop-color="#AE803F"/>
<stop offset="0.2019" stop-color="#C4A266"/>
<stop offset="0.4009" stop-color="#D7BE86"/>
<stop offset="0.5108" stop-color="#DEC992"/>
<stop offset="1" stop-color="#DEC992"/>
</linearGradient>
<linearGradient id="paint5_linear_53_435" x1="-1.60169" y1="45.8007" x2="145.361" y2="45.8007" gradientUnits="userSpaceOnUse">
<stop stop-color="#AE803F"/>
<stop offset="0.2019" stop-color="#C4A266"/>
<stop offset="0.4009" stop-color="#D7BE86"/>
<stop offset="0.5108" stop-color="#DEC992"/>
<stop offset="1" stop-color="#DEC992"/>
</linearGradient>
<linearGradient id="paint6_linear_53_435" x1="-1.60171" y1="47.1752" x2="145.361" y2="47.1752" gradientUnits="userSpaceOnUse">
<stop stop-color="#AE803F"/>
<stop offset="0.2019" stop-color="#C4A266"/>
<stop offset="0.4009" stop-color="#D7BE86"/>
<stop offset="0.5108" stop-color="#DEC992"/>
<stop offset="1" stop-color="#DEC992"/>
</linearGradient>
<linearGradient id="paint7_linear_53_435" x1="-1.60163" y1="47.1772" x2="145.361" y2="47.1772" gradientUnits="userSpaceOnUse">
<stop stop-color="#AE803F"/>
<stop offset="0.2019" stop-color="#C4A266"/>
<stop offset="0.4009" stop-color="#D7BE86"/>
<stop offset="0.5108" stop-color="#DEC992"/>
<stop offset="1" stop-color="#DEC992"/>
</linearGradient>
<linearGradient id="paint8_linear_53_435" x1="-1.60164" y1="45.791" x2="145.361" y2="45.791" gradientUnits="userSpaceOnUse">
<stop stop-color="#AE803F"/>
<stop offset="0.2019" stop-color="#C4A266"/>
<stop offset="0.4009" stop-color="#D7BE86"/>
<stop offset="0.5108" stop-color="#DEC992"/>
<stop offset="1" stop-color="#DEC992"/>
</linearGradient>
<linearGradient id="paint9_linear_53_435" x1="-1.60179" y1="47.1754" x2="145.361" y2="47.1754" gradientUnits="userSpaceOnUse">
<stop stop-color="#AE803F"/>
<stop offset="0.2019" stop-color="#C4A266"/>
<stop offset="0.4009" stop-color="#D7BE86"/>
<stop offset="0.5108" stop-color="#DEC992"/>
<stop offset="1" stop-color="#DEC992"/>
</linearGradient>
<clipPath id="clip0_53_435">
<rect width="134" height="54" fill="white"/>
</clipPath>
</defs>
</svg>
