<svg width="56" height="56" viewBox="0 0 56 56" fill="none" xmlns="http://www.w3.org/2000/svg">
<circle cx="28" cy="28" r="28" fill="url(#paint0_linear_121_32)"/>
<g clip-path="url(#clip0_121_32)">
<path d="M17.5136 24.1022C17.2046 24.1022 16.9541 23.8517 16.9541 23.5427V13.0629C16.9541 12.4948 17.7081 12.2892 17.9961 12.7796C18.6943 13.9692 19.7729 14.8408 21.1063 15.2203C21.4035 15.3048 21.5759 15.6142 21.4914 15.9115C21.4069 16.2087 21.0975 16.3817 20.8002 16.2966C19.7967 16.0112 18.8635 15.4835 18.0731 14.6951V23.5428C18.0731 23.8517 17.8226 24.1022 17.5136 24.1022Z" fill="#1A5B35"/>
<path d="M15.0238 20.5045C16.6939 20.5045 18.0473 21.8578 18.0473 23.5273C18.0473 25.1968 16.6939 26.5501 15.0245 26.5501C13.3543 26.5501 12.001 25.1968 12.001 23.5273C12.001 21.8578 13.3543 20.5045 15.0238 20.5045Z" fill="#1A5B35"/>
<path d="M44.4405 19.1148V22.9818L26.631 25.7213C26.5918 25.7213 26.6058 26.008 26.6058 21.9942C26.6058 21.1661 27.2101 20.4611 28.0291 20.3353L43.1515 18.0091C43.8293 17.9048 44.4405 18.4294 44.4405 19.1148Z" fill="#1A5B35"/>
<path d="M26.6058 38.7896C26.2968 38.7896 26.0463 38.5391 26.0463 38.2301V21.9942C26.0463 20.8816 26.8442 19.9512 27.9439 19.7821L43.0663 17.4559C44.0806 17.2997 45 18.085 45 19.1148V35.5024C45 35.8114 44.7495 36.062 44.4405 36.062C44.1315 36.062 43.881 35.8114 43.881 35.5024V19.1148C43.881 18.7676 43.5712 18.51 43.2365 18.5621L28.114 20.8883C27.5643 20.9728 27.1653 21.4379 27.1653 21.9942V38.2301C27.1653 38.5391 26.9148 38.7896 26.6058 38.7896Z" fill="#1A5B35"/>
<path d="M15.6571 22.1775C14.7279 22.4795 13.9749 23.2304 13.6728 24.1604C13.4047 24.9861 12.204 24.9233 12.0494 24.069C11.675 22.0007 13.4863 20.1748 15.5684 20.5533C16.4235 20.7089 16.4836 21.9088 15.6571 22.1775V22.1775Z" fill="#076D32"/>
<path d="M40.7211 39.7576C43.0843 39.7576 45 37.8419 45 35.4787C45 33.1155 43.0843 31.1997 40.7211 31.1997C38.3579 31.1997 36.4421 33.1155 36.4421 35.4787C36.4421 37.8419 38.3579 39.7576 40.7211 39.7576Z" fill="#1A5B35"/>
<path d="M22.899 42.4965C25.2553 42.4965 27.1654 40.5863 27.1654 38.2301C27.1654 35.8739 25.2553 33.9638 22.899 33.9638C20.5428 33.9638 18.6327 35.8739 18.6327 38.2301C18.6327 40.5863 20.5428 42.4965 22.899 42.4965Z" fill="#1A5B35"/>
<path d="M26.0463 25.7214V21.9942C26.0463 20.8815 26.8444 19.9514 27.9439 19.7821L43.0663 17.4559C44.08 17.3009 45 18.0831 45 19.1148C45 19.9429 44.3958 20.6471 43.5774 20.773L31.3722 22.6504C30.3581 22.8063 29.5462 23.5081 29.2168 24.4289C29.0086 25.0107 28.5014 25.4335 27.8907 25.5273C26.9239 25.6759 27.4309 25.616 26.0463 25.7214V25.7214Z" fill="#076D32"/>
<path d="M41.1393 33.6406C40.1375 34.0813 39.3179 34.8984 38.8772 35.9002C38.3152 37.1777 36.3975 36.7246 36.4448 35.3298C36.5198 33.1201 38.295 31.3212 40.4899 31.2058C42.0109 31.1258 42.4092 33.0818 41.1393 33.6406Z" fill="#076D32"/>
<path d="M23.3176 36.4059C22.3211 36.8448 21.5059 37.6567 21.067 38.6533C20.5048 39.9299 18.5881 39.4766 18.6351 38.0825C18.7095 35.8789 20.48 34.0847 22.6691 33.9698C24.1905 33.8899 24.5881 35.8462 23.3176 36.4059Z" fill="#076D32"/>
</g>
<defs>
<linearGradient id="paint0_linear_121_32" x1="28" y1="0" x2="28" y2="56" gradientUnits="userSpaceOnUse">
<stop stop-color="#CDAF74"/>
<stop offset="1" stop-color="#DBC48D"/>
</linearGradient>
<clipPath id="clip0_121_32">
<rect width="33" height="33" fill="white" transform="translate(12 11)"/>
</clipPath>
</defs>
</svg>
