<svg width="360" height="40" viewBox="0 0 360 40" fill="none" xmlns="http://www.w3.org/2000/svg">
<rect width="360" height="34.7228" fill="#1A5B35"/>
<rect width="361" height="40" fill="#1A5B35"/>
<path opacity="0.5" fill-rule="evenodd" clip-rule="evenodd" d="M322.589 10.16H337.411C338.659 10.16 339.111 10.29 339.568 10.534C340.024 10.778 340.382 11.1361 340.626 11.5924C340.87 12.0487 341 12.5013 341 13.7494V18.0706C341 19.3187 340.87 19.7713 340.626 20.2276C340.382 20.6839 340.024 21.042 339.568 21.286C339.111 21.53 338.659 21.66 337.411 21.66H322.589C321.341 21.66 320.889 21.53 320.432 21.286C319.976 21.042 319.618 20.6839 319.374 20.2276C319.13 19.7713 319 19.3187 319 18.0706V13.7494C319 12.5013 319.13 12.0487 319.374 11.5924C319.618 11.1361 319.976 10.778 320.432 10.534C320.889 10.29 321.341 10.16 322.589 10.16ZM322.589 11.16C321.602 11.16 321.258 11.2265 320.904 11.4158C320.622 11.5666 320.407 11.782 320.256 12.064C320.067 12.4179 320 12.7625 320 13.7494V18.0706C320 19.0575 320.067 19.4021 320.256 19.756C320.407 20.038 320.622 20.2534 320.904 20.4042C321.258 20.5935 321.602 20.66 322.589 20.66H337.411C338.398 20.66 338.742 20.5935 339.096 20.4042C339.378 20.2534 339.593 20.038 339.744 19.756C339.933 19.4021 340 19.0575 340 18.0706V13.7494C340 12.7625 339.933 12.4179 339.744 12.064C339.593 11.782 339.378 11.5666 339.096 11.4158C338.742 11.2265 338.398 11.16 337.411 11.16H322.589ZM343.5 15.85C343.5 17.0866 342 17.85 342 17.85V13.85C342 13.85 343.5 14.6134 343.5 15.85Z" fill="white"/>
<rect x="321" y="12.0767" width="18" height="7.66667" rx="1.6" fill="white"/>
<path fill-rule="evenodd" clip-rule="evenodd" d="M290.623 11.5659C290.6 11.6818 290.6 11.8212 290.6 12.1V19.8C290.6 20.0788 290.6 20.2182 290.623 20.3341C290.718 20.8101 291.09 21.1823 291.566 21.2769C291.682 21.3 291.821 21.3 292.1 21.3C292.379 21.3 292.518 21.3 292.634 21.2769C293.11 21.1823 293.482 20.8101 293.577 20.3341C293.6 20.2182 293.6 20.0788 293.6 19.8V12.1C293.6 11.8212 293.6 11.6818 293.577 11.5659C293.482 11.0899 293.11 10.7178 292.634 10.6231C292.518 10.6 292.379 10.6 292.1 10.6C291.821 10.6 291.682 10.6 291.566 10.6231C291.09 10.7178 290.718 11.0899 290.623 11.5659ZM285.9 14.5C285.9 14.2212 285.9 14.0818 285.923 13.9659C286.018 13.4899 286.39 13.1178 286.866 13.0231C286.982 13 287.121 13 287.4 13C287.679 13 287.818 13 287.934 13.0231C288.41 13.1178 288.782 13.4899 288.877 13.9659C288.9 14.0818 288.9 14.2212 288.9 14.5V19.8C288.9 20.0788 288.9 20.2182 288.877 20.3341C288.782 20.8101 288.41 21.1823 287.934 21.277C287.818 21.3 287.679 21.3 287.4 21.3C287.121 21.3 286.982 21.3 286.866 21.277C286.39 21.1823 286.018 20.8101 285.923 20.3341C285.9 20.2182 285.9 20.0788 285.9 19.8V14.5ZM281.323 16.2659C281.3 16.3818 281.3 16.5212 281.3 16.8V19.8C281.3 20.0788 281.3 20.2182 281.323 20.3341C281.418 20.8101 281.79 21.1823 282.266 21.277C282.382 21.3 282.521 21.3 282.8 21.3C283.079 21.3 283.218 21.3 283.334 21.277C283.81 21.1823 284.182 20.8101 284.277 20.3341C284.3 20.2182 284.3 20.0788 284.3 19.8V16.8C284.3 16.5212 284.3 16.3818 284.277 16.2659C284.182 15.7899 283.81 15.4178 283.334 15.3231C283.218 15.3 283.079 15.3 282.8 15.3C282.521 15.3 282.382 15.3 282.266 15.3231C281.79 15.4178 281.418 15.7899 281.323 16.2659ZM276.523 18.2659C276.5 18.3818 276.5 18.5212 276.5 18.8V19.8C276.5 20.0788 276.5 20.2182 276.523 20.3341C276.618 20.8101 276.99 21.1823 277.466 21.277C277.582 21.3 277.721 21.3 278 21.3C278.279 21.3 278.418 21.3 278.534 21.277C279.01 21.1823 279.382 20.8101 279.477 20.3341C279.5 20.2182 279.5 20.0788 279.5 19.8V18.8C279.5 18.5212 279.5 18.3818 279.477 18.2659C279.382 17.7899 279.01 17.4178 278.534 17.3231C278.418 17.3 278.279 17.3 278 17.3C277.721 17.3 277.582 17.3 277.466 17.3231C276.99 17.4178 276.618 17.7899 276.523 18.2659Z" fill="white"/>
<path fill-rule="evenodd" clip-rule="evenodd" d="M306.3 12.6964C308.535 12.6965 310.684 13.555 312.303 15.0946C312.425 15.2134 312.62 15.2119 312.74 15.0912L313.906 13.9148C313.967 13.8536 314.001 13.7706 314 13.6843C313.999 13.598 313.965 13.5155 313.903 13.455C309.653 9.38167 302.947 9.38167 298.697 13.455C298.636 13.5154 298.601 13.598 298.6 13.6843C298.599 13.7705 298.633 13.8535 298.694 13.9148L299.86 15.0912C299.98 15.2121 300.175 15.2136 300.297 15.0946C301.917 13.5549 304.066 12.6963 306.3 12.6964ZM306.3 16.5237C307.528 16.5237 308.712 16.98 309.622 17.804C309.745 17.921 309.939 17.9184 310.059 17.7983L311.223 16.6219C311.285 16.5602 311.319 16.4765 311.318 16.3895C311.317 16.3025 311.281 16.2195 311.219 16.1591C308.447 13.5813 304.156 13.5813 301.385 16.1591C301.322 16.2195 301.286 16.3025 301.286 16.3896C301.285 16.4766 301.319 16.5603 301.38 16.6219L302.544 17.7983C302.664 17.9184 302.858 17.921 302.981 17.804C303.891 16.9805 305.074 16.5242 306.3 16.5237ZM308.538 19.3313C308.6 19.2702 308.635 19.1861 308.633 19.0989C308.631 19.0117 308.593 18.929 308.529 18.8705C307.242 17.7826 305.359 17.7826 304.072 18.8705C304.008 18.929 303.97 19.0116 303.968 19.0988C303.966 19.1861 304 19.2702 304.063 19.3313L306.077 21.3639C306.136 21.4236 306.216 21.4572 306.3 21.4572C306.384 21.4572 306.465 21.4236 306.524 21.3639L308.538 19.3313Z" fill="white"/>
<path d="M20.9286 25.2124C19.9569 25.2124 19.1244 24.9487 18.4311 24.4214C17.7426 23.894 17.3227 23.2056 17.1713 22.356H19.0463C19.1635 22.7563 19.3954 23.0786 19.7421 23.3228C20.0937 23.562 20.4989 23.6816 20.9579 23.6816C21.744 23.6816 22.3544 23.3301 22.789 22.627C23.2284 21.9189 23.4408 20.9302 23.4262 19.6606H23.4115H23.4042H23.3969C23.1869 20.1831 22.8256 20.603 22.3129 20.9204C21.8051 21.2329 21.2118 21.3892 20.5331 21.3892C19.5272 21.3892 18.6898 21.0571 18.0209 20.3931C17.3568 19.729 17.0248 18.8965 17.0248 17.8955C17.0248 16.8262 17.3959 15.9448 18.1381 15.2515C18.8852 14.5581 19.83 14.2114 20.9726 14.2114C21.7489 14.2114 22.4398 14.3921 23.0453 14.7534C23.6557 15.1147 24.1366 15.6323 24.4882 16.3062C24.9911 17.1802 25.2426 18.2764 25.2426 19.5947C25.2426 21.3574 24.8617 22.7344 24.1 23.7256C23.3383 24.7168 22.2812 25.2124 20.9286 25.2124ZM20.9799 19.9097C21.5854 19.9097 22.0907 19.7144 22.496 19.3237C22.9013 18.9331 23.1039 18.4473 23.1039 17.8662C23.1039 17.2754 22.8988 16.7773 22.4887 16.3721C22.0834 15.9668 21.5854 15.7642 20.9945 15.7642C20.4037 15.7642 19.9032 15.9644 19.4931 16.3647C19.0878 16.7651 18.8852 17.2559 18.8852 17.8369C18.8852 18.4326 19.0829 18.9282 19.4784 19.3237C19.8788 19.7144 20.3793 19.9097 20.9799 19.9097ZM30.5669 25.0806C30.269 25.0806 30.0176 24.9805 29.8125 24.7803C29.6123 24.5752 29.5122 24.3237 29.5122 24.0259C29.5122 23.7329 29.6123 23.4839 29.8125 23.2788C30.0176 23.0737 30.269 22.9712 30.5669 22.9712C30.8598 22.9712 31.1064 23.0737 31.3066 23.2788C31.5117 23.4839 31.6142 23.7329 31.6142 24.0259C31.6142 24.3237 31.5117 24.5752 31.3066 24.7803C31.1064 24.9805 30.8598 25.0806 30.5669 25.0806ZM30.5669 19.7925C30.269 19.7925 30.0176 19.6899 29.8125 19.4849C29.6123 19.2798 29.5122 19.0308 29.5122 18.7378C29.5122 18.4448 29.6123 18.1958 29.8125 17.9907C30.0176 17.7856 30.269 17.6831 30.5669 17.6831C30.8598 17.6831 31.1064 17.7856 31.3066 17.9907C31.5117 18.1958 31.6142 18.4448 31.6142 18.7378C31.6142 19.0308 31.5117 19.2798 31.3066 19.4849C31.1064 19.6899 30.8598 19.7925 30.5669 19.7925ZM41.0767 25V23.0005H35.8033V21.3745C36.6724 19.7339 38.1348 17.4194 40.1905 14.4312H42.8785V21.4551H44.2994V23.0005H42.8785V25H41.0767ZM37.5171 21.4478V21.499H41.106V15.8301H41.0767C40.1832 17.124 39.4678 18.1934 38.9307 19.0381C38.3936 19.8828 37.9224 20.686 37.5171 21.4478ZM47.9942 25V16.2329H47.9503L45.2184 18.1519V16.3721L47.9796 14.4312H49.8473V25H47.9942Z" fill="white"/>
</svg>
